<mxfile host="app.diagrams.net" modified="2024-06-04T12:51:58.837Z" agent="Mozilla/5.0 (Windows NT 10.0; Win64; x64) AppleWebKit/537.36 (KHTML, like Gecko) Chrome/121.0.0.0 Safari/537.36" etag="c08yxeirpkSO1fCoaB6p" version="24.4.13" type="device" pages="3">
  <diagram name="Página-1" id="Z2X7U-kc3Gqdy1lj0Mav">
    <mxGraphModel dx="2876" dy="2286" grid="1" gridSize="10" guides="1" tooltips="1" connect="1" arrows="1" fold="1" page="1" pageScale="1" pageWidth="827" pageHeight="1169" math="0" shadow="0">
      <root>
        <mxCell id="0" />
        <mxCell id="1" parent="0" />
        <mxCell id="wK74aQmAxWbpTjFxCRPO-2" value="" style="rounded=1;whiteSpace=wrap;html=1;fillColor=#fff2cc;strokeColor=#d6b656;gradientColor=#FFFFFF;" vertex="1" parent="1">
          <mxGeometry x="270" y="40" width="450" height="800" as="geometry" />
        </mxCell>
        <mxCell id="wK74aQmAxWbpTjFxCRPO-3" value="&lt;font style=&quot;vertical-align: inherit;&quot;&gt;&lt;font style=&quot;vertical-align: inherit;&quot;&gt;CADASTRAR CLIENTE&lt;/font&gt;&lt;/font&gt;" style="text;strokeColor=none;fillColor=none;html=1;fontSize=24;fontStyle=1;verticalAlign=middle;align=center;" vertex="1" parent="1">
          <mxGeometry x="445" y="80" width="100" height="40" as="geometry" />
        </mxCell>
        <mxCell id="wK74aQmAxWbpTjFxCRPO-4" value="" style="rounded=1;whiteSpace=wrap;html=1;" vertex="1" parent="1">
          <mxGeometry x="325" y="180" width="205" height="30" as="geometry" />
        </mxCell>
        <mxCell id="wK74aQmAxWbpTjFxCRPO-5" value="&lt;font style=&quot;vertical-align: inherit;&quot;&gt;&lt;font style=&quot;vertical-align: inherit;&quot;&gt;&lt;font style=&quot;vertical-align: inherit;&quot;&gt;&lt;font style=&quot;vertical-align: inherit;&quot;&gt;Nome:&lt;/font&gt;&lt;/font&gt;&lt;/font&gt;&lt;/font&gt;" style="text;html=1;align=center;verticalAlign=middle;whiteSpace=wrap;rounded=0;" vertex="1" parent="1">
          <mxGeometry x="320" y="150" width="60" height="30" as="geometry" />
        </mxCell>
        <mxCell id="wK74aQmAxWbpTjFxCRPO-6" value="&lt;font style=&quot;vertical-align: inherit;&quot;&gt;&lt;font style=&quot;vertical-align: inherit;&quot;&gt;Sobrenome:&lt;/font&gt;&lt;/font&gt;" style="text;html=1;align=center;verticalAlign=middle;whiteSpace=wrap;rounded=0;" vertex="1" parent="1">
          <mxGeometry x="325" y="260" width="60" height="30" as="geometry" />
        </mxCell>
        <mxCell id="wK74aQmAxWbpTjFxCRPO-7" value="" style="rounded=1;whiteSpace=wrap;html=1;" vertex="1" parent="1">
          <mxGeometry x="325" y="290" width="205" height="30" as="geometry" />
        </mxCell>
        <mxCell id="wK74aQmAxWbpTjFxCRPO-8" value="&lt;font style=&quot;vertical-align: inherit;&quot;&gt;&lt;font style=&quot;vertical-align: inherit;&quot;&gt;&lt;font style=&quot;vertical-align: inherit;&quot;&gt;&lt;font style=&quot;vertical-align: inherit;&quot;&gt;&lt;font style=&quot;vertical-align: inherit;&quot;&gt;&lt;font style=&quot;vertical-align: inherit;&quot;&gt;&lt;font style=&quot;vertical-align: inherit;&quot;&gt;&lt;font style=&quot;vertical-align: inherit;&quot;&gt;CPF: (APENAS NÚMEROS)&lt;/font&gt;&lt;/font&gt;&lt;/font&gt;&lt;/font&gt;&lt;/font&gt;&lt;/font&gt;&lt;/font&gt;&lt;/font&gt;" style="text;html=1;align=center;verticalAlign=middle;whiteSpace=wrap;rounded=0;" vertex="1" parent="1">
          <mxGeometry x="320" y="380" width="170" height="30" as="geometry" />
        </mxCell>
        <mxCell id="wK74aQmAxWbpTjFxCRPO-9" value="" style="rounded=1;whiteSpace=wrap;html=1;" vertex="1" parent="1">
          <mxGeometry x="325" y="410" width="205" height="30" as="geometry" />
        </mxCell>
        <mxCell id="wK74aQmAxWbpTjFxCRPO-12" value="" style="verticalLabelPosition=bottom;verticalAlign=top;html=1;shape=mxgraph.basic.tick;fillColor=#d5e8d4;strokeColor=#82b366;" vertex="1" parent="1">
          <mxGeometry x="580" y="660" width="60" height="70" as="geometry" />
        </mxCell>
        <mxCell id="wK74aQmAxWbpTjFxCRPO-14" value="&lt;font style=&quot;vertical-align: inherit;&quot;&gt;&lt;font style=&quot;vertical-align: inherit;&quot;&gt;TELEFONE:&lt;/font&gt;&lt;/font&gt;" style="text;html=1;align=center;verticalAlign=middle;whiteSpace=wrap;rounded=0;" vertex="1" parent="1">
          <mxGeometry x="325" y="520" width="60" height="30" as="geometry" />
        </mxCell>
        <mxCell id="wK74aQmAxWbpTjFxCRPO-15" value="" style="rounded=1;whiteSpace=wrap;html=1;" vertex="1" parent="1">
          <mxGeometry x="325" y="550" width="205" height="30" as="geometry" />
        </mxCell>
        <mxCell id="wK74aQmAxWbpTjFxCRPO-16" value="" style="rounded=1;whiteSpace=wrap;html=1;fillColor=#fff2cc;strokeColor=#d6b656;gradientColor=#ffffff;" vertex="1" parent="1">
          <mxGeometry x="780" y="40" width="450" height="800" as="geometry" />
        </mxCell>
        <mxCell id="wK74aQmAxWbpTjFxCRPO-19" value="&lt;font style=&quot;vertical-align: inherit;&quot;&gt;&lt;font style=&quot;vertical-align: inherit;&quot;&gt;CADASTRAR CLIENTE&lt;/font&gt;&lt;/font&gt;" style="text;strokeColor=none;fillColor=none;html=1;fontSize=24;fontStyle=1;verticalAlign=middle;align=center;" vertex="1" parent="1">
          <mxGeometry x="955" y="80" width="100" height="40" as="geometry" />
        </mxCell>
        <mxCell id="wK74aQmAxWbpTjFxCRPO-22" value="&lt;font style=&quot;vertical-align: inherit; font-size: 26px;&quot;&gt;&lt;font style=&quot;vertical-align: inherit; font-size: 26px;&quot;&gt;&lt;font style=&quot;vertical-align: inherit; font-size: 39px;&quot;&gt;&lt;font style=&quot;vertical-align: inherit; font-size: 39px;&quot;&gt;&lt;font style=&quot;vertical-align: inherit; font-size: 39px;&quot;&gt;&lt;font style=&quot;vertical-align: inherit; font-size: 39px;&quot;&gt;&lt;font style=&quot;vertical-align: inherit;&quot;&gt;&lt;font style=&quot;vertical-align: inherit;&quot; color=&quot;#ff1c1c&quot;&gt;!&lt;/font&gt;&lt;/font&gt;&lt;/font&gt;&lt;/font&gt;&lt;/font&gt;&lt;/font&gt;&lt;/font&gt;&lt;/font&gt;" style="strokeWidth=2;html=1;shape=mxgraph.flowchart.extract_or_measurement;whiteSpace=wrap;" vertex="1" parent="1">
          <mxGeometry x="880" y="350" width="70" height="50" as="geometry" />
        </mxCell>
        <mxCell id="wK74aQmAxWbpTjFxCRPO-26" value="" style="swimlane;startSize=0;" vertex="1" parent="1">
          <mxGeometry x="853.75" y="303.75" width="302.5" height="272.5" as="geometry">
            <mxRectangle x="853.75" y="303.75" width="50" height="40" as="alternateBounds" />
          </mxGeometry>
        </mxCell>
        <mxCell id="wK74aQmAxWbpTjFxCRPO-23" value="&lt;font style=&quot;vertical-align: inherit; font-size: 16px;&quot;&gt;&lt;font style=&quot;vertical-align: inherit; font-size: 16px;&quot;&gt;DADOS INVALIDOS. TENTE NOVAMENTE!&lt;/font&gt;&lt;/font&gt;" style="text;html=1;align=center;verticalAlign=middle;whiteSpace=wrap;rounded=0;fontSize=16;" vertex="1" parent="wK74aQmAxWbpTjFxCRPO-26">
          <mxGeometry x="126.25" y="66.25" width="170" height="30" as="geometry" />
        </mxCell>
        <mxCell id="wK74aQmAxWbpTjFxCRPO-24" value="" style="rounded=0;whiteSpace=wrap;html=1;" vertex="1" parent="wK74aQmAxWbpTjFxCRPO-26">
          <mxGeometry x="116.25" y="166.25" width="70" height="30" as="geometry" />
        </mxCell>
        <mxCell id="wK74aQmAxWbpTjFxCRPO-28" value="OK!" style="text;html=1;align=center;verticalAlign=middle;whiteSpace=wrap;rounded=0;" vertex="1" parent="wK74aQmAxWbpTjFxCRPO-26">
          <mxGeometry x="121.25" y="166.25" width="60" height="30" as="geometry" />
        </mxCell>
        <mxCell id="5uLIpxIv9q1uYOE9nBTQ-1" value="" style="verticalLabelPosition=bottom;verticalAlign=top;html=1;shape=mxgraph.basic.x;fillColor=#f8cecc;strokeColor=#b85450;" vertex="1" parent="1">
          <mxGeometry x="350" y="670" width="60" height="60" as="geometry" />
        </mxCell>
        <mxCell id="5uLIpxIv9q1uYOE9nBTQ-2" value="" style="rounded=1;whiteSpace=wrap;html=1;fillColor=#fff2cc;strokeColor=#d6b656;gradientColor=#ffffff;" vertex="1" parent="1">
          <mxGeometry x="1280" y="40" width="450" height="800" as="geometry" />
        </mxCell>
        <mxCell id="5uLIpxIv9q1uYOE9nBTQ-3" value="" style="swimlane;startSize=0;" vertex="1" parent="1">
          <mxGeometry x="1360" y="303.75" width="302.5" height="272.5" as="geometry">
            <mxRectangle x="1360" y="303.75" width="50" height="40" as="alternateBounds" />
          </mxGeometry>
        </mxCell>
        <mxCell id="5uLIpxIv9q1uYOE9nBTQ-4" value="Deseja Substituir?" style="text;html=1;align=center;verticalAlign=middle;whiteSpace=wrap;rounded=0;fontSize=16;" vertex="1" parent="5uLIpxIv9q1uYOE9nBTQ-3">
          <mxGeometry x="70" y="76.25" width="170" height="30" as="geometry" />
        </mxCell>
        <mxCell id="5uLIpxIv9q1uYOE9nBTQ-5" value="" style="rounded=0;whiteSpace=wrap;html=1;" vertex="1" parent="5uLIpxIv9q1uYOE9nBTQ-3">
          <mxGeometry x="50" y="166.25" width="70" height="30" as="geometry" />
        </mxCell>
        <mxCell id="5uLIpxIv9q1uYOE9nBTQ-6" value="SIM" style="text;html=1;align=center;verticalAlign=middle;whiteSpace=wrap;rounded=0;" vertex="1" parent="5uLIpxIv9q1uYOE9nBTQ-3">
          <mxGeometry x="55" y="166.25" width="60" height="30" as="geometry" />
        </mxCell>
        <mxCell id="5uLIpxIv9q1uYOE9nBTQ-7" value="&lt;font style=&quot;vertical-align: inherit;&quot;&gt;&lt;font style=&quot;vertical-align: inherit;&quot;&gt;CADASTRAR CLIENTE&lt;/font&gt;&lt;/font&gt;" style="text;strokeColor=none;fillColor=none;html=1;fontSize=24;fontStyle=1;verticalAlign=middle;align=center;" vertex="1" parent="1">
          <mxGeometry x="1455" y="80" width="100" height="40" as="geometry" />
        </mxCell>
        <mxCell id="5uLIpxIv9q1uYOE9nBTQ-8" value="NAO" style="text;html=1;align=center;verticalAlign=middle;whiteSpace=wrap;rounded=0;" vertex="1" parent="1">
          <mxGeometry x="1570" y="470" width="60" height="30" as="geometry" />
        </mxCell>
        <mxCell id="5uLIpxIv9q1uYOE9nBTQ-9" value="" style="verticalLabelPosition=bottom;verticalAlign=top;html=1;shape=mxgraph.basic.rect;fillColor2=none;strokeWidth=1;size=20;indent=5;" vertex="1" parent="1">
          <mxGeometry x="1560" y="470" width="70" height="30" as="geometry" />
        </mxCell>
        <mxCell id="5uLIpxIv9q1uYOE9nBTQ-10" value="NAO" style="text;html=1;align=center;verticalAlign=middle;whiteSpace=wrap;rounded=0;" vertex="1" parent="1">
          <mxGeometry x="1565" y="470" width="60" height="30" as="geometry" />
        </mxCell>
        <mxCell id="5uLIpxIv9q1uYOE9nBTQ-16" value="" style="group" vertex="1" connectable="0" parent="1">
          <mxGeometry x="1050" y="-445" width="2" height="12" as="geometry" />
        </mxCell>
        <mxCell id="5uLIpxIv9q1uYOE9nBTQ-12" value="" style="ellipse;whiteSpace=wrap;html=1;rotation=0;fillColor=#000000;" vertex="1" parent="5uLIpxIv9q1uYOE9nBTQ-16">
          <mxGeometry width="2" height="2" as="geometry" />
        </mxCell>
        <mxCell id="5uLIpxIv9q1uYOE9nBTQ-13" value="" style="ellipse;whiteSpace=wrap;html=1;rotation=0;fillColor=#000000;" vertex="1" parent="5uLIpxIv9q1uYOE9nBTQ-16">
          <mxGeometry y="5" width="2" height="2" as="geometry" />
        </mxCell>
        <mxCell id="5uLIpxIv9q1uYOE9nBTQ-14" value="" style="ellipse;whiteSpace=wrap;html=1;rotation=0;fillColor=#000000;" vertex="1" parent="5uLIpxIv9q1uYOE9nBTQ-16">
          <mxGeometry y="10" width="2" height="2" as="geometry" />
        </mxCell>
        <mxCell id="pWPFV7T8HjcIY4bY7MM9-1" value="" style="shape=ext;double=1;rounded=1;whiteSpace=wrap;html=1;sketch=1;hachureGap=4;jiggle=2;curveFitting=1;fontFamily=Architects Daughter;fontSource=https%3A%2F%2Ffonts.googleapis.com%2Fcss%3Ffamily%3DArchitects%2BDaughter;fillColor=#fff2cc;strokeColor=#d6b656;gradientColor=#ffffff;" vertex="1" parent="1">
          <mxGeometry x="-80" y="-445" width="800" height="453" as="geometry" />
        </mxCell>
        <mxCell id="pWPFV7T8HjcIY4bY7MM9-2" value="&lt;font style=&quot;vertical-align: inherit;&quot;&gt;&lt;font style=&quot;vertical-align: inherit;&quot;&gt;CADASTRAR CLIENTE&lt;/font&gt;&lt;/font&gt;" style="text;strokeColor=none;fillColor=none;html=1;fontSize=24;fontStyle=1;verticalAlign=middle;align=center;" vertex="1" parent="1">
          <mxGeometry x="250" y="-420" width="100" height="40" as="geometry" />
        </mxCell>
        <mxCell id="pWPFV7T8HjcIY4bY7MM9-3" value="&lt;font style=&quot;vertical-align: inherit;&quot;&gt;&lt;font style=&quot;vertical-align: inherit;&quot;&gt;&lt;font style=&quot;vertical-align: inherit;&quot;&gt;&lt;font style=&quot;vertical-align: inherit;&quot;&gt;Nome:&lt;/font&gt;&lt;/font&gt;&lt;/font&gt;&lt;/font&gt;" style="text;html=1;align=center;verticalAlign=middle;whiteSpace=wrap;rounded=0;" vertex="1" parent="1">
          <mxGeometry x="-20" y="-360" width="60" height="30" as="geometry" />
        </mxCell>
        <mxCell id="pWPFV7T8HjcIY4bY7MM9-4" value="" style="rounded=1;whiteSpace=wrap;html=1;" vertex="1" parent="1">
          <mxGeometry x="-20" y="-330" width="205" height="30" as="geometry" />
        </mxCell>
        <mxCell id="pWPFV7T8HjcIY4bY7MM9-7" value="&lt;font style=&quot;vertical-align: inherit;&quot;&gt;&lt;font style=&quot;vertical-align: inherit;&quot;&gt;Sobrenome:&lt;/font&gt;&lt;/font&gt;" style="text;html=1;align=center;verticalAlign=middle;whiteSpace=wrap;rounded=0;" vertex="1" parent="1">
          <mxGeometry x="-10" y="-280" width="60" height="30" as="geometry" />
        </mxCell>
        <mxCell id="pWPFV7T8HjcIY4bY7MM9-8" value="" style="rounded=1;whiteSpace=wrap;html=1;" vertex="1" parent="1">
          <mxGeometry x="-20" y="-250" width="205" height="30" as="geometry" />
        </mxCell>
        <mxCell id="pWPFV7T8HjcIY4bY7MM9-12" value="&lt;font style=&quot;vertical-align: inherit;&quot;&gt;&lt;font style=&quot;vertical-align: inherit;&quot;&gt;&lt;font style=&quot;vertical-align: inherit;&quot;&gt;&lt;font style=&quot;vertical-align: inherit;&quot;&gt;&lt;font style=&quot;vertical-align: inherit;&quot;&gt;&lt;font style=&quot;vertical-align: inherit;&quot;&gt;&lt;font style=&quot;vertical-align: inherit;&quot;&gt;&lt;font style=&quot;vertical-align: inherit;&quot;&gt;CPF: (APENAS NÚMEROS)&lt;/font&gt;&lt;/font&gt;&lt;/font&gt;&lt;/font&gt;&lt;/font&gt;&lt;/font&gt;&lt;/font&gt;&lt;/font&gt;" style="text;html=1;align=center;verticalAlign=middle;whiteSpace=wrap;rounded=0;" vertex="1" parent="1">
          <mxGeometry x="-20" y="-200" width="170" height="30" as="geometry" />
        </mxCell>
        <mxCell id="pWPFV7T8HjcIY4bY7MM9-13" value="" style="rounded=1;whiteSpace=wrap;html=1;" vertex="1" parent="1">
          <mxGeometry x="-20" y="-160" width="205" height="30" as="geometry" />
        </mxCell>
        <mxCell id="pWPFV7T8HjcIY4bY7MM9-14" value="&lt;font style=&quot;vertical-align: inherit;&quot;&gt;&lt;font style=&quot;vertical-align: inherit;&quot;&gt;TELEFONE:&lt;/font&gt;&lt;/font&gt;" style="text;html=1;align=center;verticalAlign=middle;whiteSpace=wrap;rounded=0;" vertex="1" parent="1">
          <mxGeometry x="-10" y="-100" width="60" height="30" as="geometry" />
        </mxCell>
        <mxCell id="pWPFV7T8HjcIY4bY7MM9-15" value="" style="rounded=1;whiteSpace=wrap;html=1;" vertex="1" parent="1">
          <mxGeometry x="-20" y="-70" width="205" height="30" as="geometry" />
        </mxCell>
        <mxCell id="pWPFV7T8HjcIY4bY7MM9-16" value="" style="verticalLabelPosition=bottom;verticalAlign=top;html=1;shape=mxgraph.basic.tick;fillColor=#d5e8d4;strokeColor=#82b366;" vertex="1" parent="1">
          <mxGeometry x="570" y="-240" width="60" height="70" as="geometry" />
        </mxCell>
        <mxCell id="pWPFV7T8HjcIY4bY7MM9-17" value="" style="verticalLabelPosition=bottom;verticalAlign=top;html=1;shape=mxgraph.basic.x;fillColor=#f8cecc;strokeColor=#b85450;" vertex="1" parent="1">
          <mxGeometry x="414" y="-230" width="60" height="60" as="geometry" />
        </mxCell>
        <mxCell id="pWPFV7T8HjcIY4bY7MM9-20" value="CADASTRO" style="rounded=0;whiteSpace=wrap;html=1;" vertex="1" parent="1">
          <mxGeometry x="430" y="-120" width="180" height="50" as="geometry" />
        </mxCell>
        <mxCell id="pWPFV7T8HjcIY4bY7MM9-22" value="Possuo cadastro &amp;gt;&amp;gt;" style="text;html=1;align=center;verticalAlign=middle;whiteSpace=wrap;rounded=0;" vertex="1" parent="1">
          <mxGeometry x="450" y="-70" width="140" height="30" as="geometry" />
        </mxCell>
        <mxCell id="pWPFV7T8HjcIY4bY7MM9-23" value="" style="shape=ext;double=1;rounded=1;whiteSpace=wrap;html=1;sketch=1;hachureGap=4;jiggle=2;curveFitting=1;fontFamily=Architects Daughter;fontSource=https%3A%2F%2Ffonts.googleapis.com%2Fcss%3Ffamily%3DArchitects%2BDaughter;fillColor=#fff2cc;strokeColor=#d6b656;gradientColor=#ffffff;" vertex="1" parent="1">
          <mxGeometry x="780" y="-453" width="800" height="453" as="geometry" />
        </mxCell>
        <mxCell id="pWPFV7T8HjcIY4bY7MM9-24" value="&lt;font style=&quot;vertical-align: inherit;&quot;&gt;&lt;font style=&quot;vertical-align: inherit;&quot;&gt;CADASTRAR CLIENTE&lt;/font&gt;&lt;/font&gt;" style="text;strokeColor=none;fillColor=none;html=1;fontSize=24;fontStyle=1;verticalAlign=middle;align=center;container=1;" vertex="1" parent="1">
          <mxGeometry x="1156.25" y="-420" width="100" height="40" as="geometry" />
        </mxCell>
        <mxCell id="pWPFV7T8HjcIY4bY7MM9-26" value="" style="swimlane;startSize=0;" vertex="1" parent="1">
          <mxGeometry x="1028.75" y="-330" width="302.5" height="272.5" as="geometry">
            <mxRectangle x="863.75" y="313.75" width="50" height="40" as="alternateBounds" />
          </mxGeometry>
        </mxCell>
        <mxCell id="pWPFV7T8HjcIY4bY7MM9-27" value="&lt;font style=&quot;vertical-align: inherit; font-size: 16px;&quot;&gt;&lt;font style=&quot;vertical-align: inherit; font-size: 16px;&quot;&gt;DADOS INVALIDOS. TENTE NOVAMENTE!&lt;/font&gt;&lt;/font&gt;" style="text;html=1;align=center;verticalAlign=middle;whiteSpace=wrap;rounded=0;fontSize=16;" vertex="1" parent="pWPFV7T8HjcIY4bY7MM9-26">
          <mxGeometry x="126.25" y="66.25" width="170" height="30" as="geometry" />
        </mxCell>
        <mxCell id="pWPFV7T8HjcIY4bY7MM9-28" value="" style="rounded=0;whiteSpace=wrap;html=1;" vertex="1" parent="pWPFV7T8HjcIY4bY7MM9-26">
          <mxGeometry x="116.25" y="166.25" width="70" height="30" as="geometry" />
        </mxCell>
        <mxCell id="pWPFV7T8HjcIY4bY7MM9-29" value="OK!" style="text;html=1;align=center;verticalAlign=middle;whiteSpace=wrap;rounded=0;" vertex="1" parent="pWPFV7T8HjcIY4bY7MM9-26">
          <mxGeometry x="121.25" y="166.25" width="60" height="30" as="geometry" />
        </mxCell>
        <mxCell id="pWPFV7T8HjcIY4bY7MM9-30" value="&lt;font style=&quot;vertical-align: inherit; font-size: 26px;&quot;&gt;&lt;font style=&quot;vertical-align: inherit; font-size: 26px;&quot;&gt;&lt;font style=&quot;vertical-align: inherit; font-size: 39px;&quot;&gt;&lt;font style=&quot;vertical-align: inherit; font-size: 39px;&quot;&gt;&lt;font style=&quot;vertical-align: inherit; font-size: 39px;&quot;&gt;&lt;font style=&quot;vertical-align: inherit; font-size: 39px;&quot;&gt;&lt;font style=&quot;vertical-align: inherit;&quot;&gt;&lt;font style=&quot;vertical-align: inherit;&quot; color=&quot;#ff1c1c&quot;&gt;!&lt;/font&gt;&lt;/font&gt;&lt;/font&gt;&lt;/font&gt;&lt;/font&gt;&lt;/font&gt;&lt;/font&gt;&lt;/font&gt;" style="strokeWidth=2;html=1;shape=mxgraph.flowchart.extract_or_measurement;whiteSpace=wrap;" vertex="1" parent="1">
          <mxGeometry x="1055" y="-280" width="70" height="50" as="geometry" />
        </mxCell>
        <mxCell id="pWPFV7T8HjcIY4bY7MM9-32" value="" style="shape=ext;double=1;rounded=1;whiteSpace=wrap;html=1;sketch=1;hachureGap=4;jiggle=2;curveFitting=1;fontFamily=Architects Daughter;fontSource=https%3A%2F%2Ffonts.googleapis.com%2Fcss%3Ffamily%3DArchitects%2BDaughter;fillColor=#fff2cc;strokeColor=#d6b656;gradientColor=#ffffff;" vertex="1" parent="1">
          <mxGeometry x="1625" y="-453" width="800" height="453" as="geometry" />
        </mxCell>
        <mxCell id="pWPFV7T8HjcIY4bY7MM9-33" value="&lt;font style=&quot;vertical-align: inherit;&quot;&gt;&lt;font style=&quot;vertical-align: inherit;&quot;&gt;CADASTRAR CLIENTE&lt;/font&gt;&lt;/font&gt;" style="text;strokeColor=none;fillColor=none;html=1;fontSize=24;fontStyle=1;verticalAlign=middle;align=center;" vertex="1" parent="1">
          <mxGeometry x="1975" y="-420" width="100" height="40" as="geometry" />
        </mxCell>
        <mxCell id="pWPFV7T8HjcIY4bY7MM9-34" value="" style="swimlane;startSize=0;" vertex="1" parent="1">
          <mxGeometry x="1873.75" y="-336.25" width="302.5" height="272.5" as="geometry">
            <mxRectangle x="1360" y="303.75" width="50" height="40" as="alternateBounds" />
          </mxGeometry>
        </mxCell>
        <mxCell id="pWPFV7T8HjcIY4bY7MM9-35" value="Deseja Substituir?" style="text;html=1;align=center;verticalAlign=middle;whiteSpace=wrap;rounded=0;fontSize=16;" vertex="1" parent="pWPFV7T8HjcIY4bY7MM9-34">
          <mxGeometry x="70" y="76.25" width="170" height="30" as="geometry" />
        </mxCell>
        <mxCell id="pWPFV7T8HjcIY4bY7MM9-36" value="" style="rounded=0;whiteSpace=wrap;html=1;" vertex="1" parent="pWPFV7T8HjcIY4bY7MM9-34">
          <mxGeometry x="50" y="166.25" width="70" height="30" as="geometry" />
        </mxCell>
        <mxCell id="pWPFV7T8HjcIY4bY7MM9-37" value="SIM" style="text;html=1;align=center;verticalAlign=middle;whiteSpace=wrap;rounded=0;" vertex="1" parent="pWPFV7T8HjcIY4bY7MM9-34">
          <mxGeometry x="55" y="166.25" width="60" height="30" as="geometry" />
        </mxCell>
        <mxCell id="pWPFV7T8HjcIY4bY7MM9-40" value="" style="rounded=0;whiteSpace=wrap;html=1;" vertex="1" parent="pWPFV7T8HjcIY4bY7MM9-34">
          <mxGeometry x="175" y="162.5" width="70" height="33.75" as="geometry" />
        </mxCell>
        <mxCell id="pWPFV7T8HjcIY4bY7MM9-41" value="NAO" style="text;html=1;align=center;verticalAlign=middle;whiteSpace=wrap;rounded=0;" vertex="1" parent="pWPFV7T8HjcIY4bY7MM9-34">
          <mxGeometry x="180" y="166.25" width="60" height="30" as="geometry" />
        </mxCell>
      </root>
    </mxGraphModel>
  </diagram>
  <diagram id="cd1hz5xt7L7uMbxWvg5y" name="Página-2">
    <mxGraphModel dx="2261" dy="1941" grid="1" gridSize="10" guides="1" tooltips="1" connect="1" arrows="1" fold="1" page="1" pageScale="1" pageWidth="827" pageHeight="1169" math="0" shadow="0">
      <root>
        <mxCell id="0" />
        <mxCell id="1" parent="0" />
        <mxCell id="l82-rn2v1ud4wSyiEhjN-1" value="" style="rounded=1;whiteSpace=wrap;html=1;fillColor=#dae8fc;strokeColor=#6c8ebf;gradientColor=#FFFAFC;" parent="1" vertex="1">
          <mxGeometry x="200" y="-20" width="450" height="800" as="geometry" />
        </mxCell>
        <mxCell id="H_EbNWQOz75WT1NjhLlf-5" value="Listar Cliente" style="text;strokeColor=none;fillColor=none;html=1;fontSize=24;fontStyle=1;verticalAlign=middle;align=center;" parent="1" vertex="1">
          <mxGeometry x="375" y="40" width="100" height="40" as="geometry" />
        </mxCell>
        <mxCell id="H_EbNWQOz75WT1NjhLlf-45" value="Buscar Cliente..." style="rounded=1;whiteSpace=wrap;html=1;" parent="1" vertex="1">
          <mxGeometry x="250" y="140" width="290" height="40" as="geometry" />
        </mxCell>
        <mxCell id="H_EbNWQOz75WT1NjhLlf-47" value="" style="rounded=1;whiteSpace=wrap;html=1;" parent="1" vertex="1">
          <mxGeometry x="550" y="140" width="50" height="40" as="geometry" />
        </mxCell>
        <mxCell id="H_EbNWQOz75WT1NjhLlf-53" value="" style="sketch=0;outlineConnect=0;fontColor=#232F3E;gradientColor=none;fillColor=#232F3D;strokeColor=none;dashed=0;verticalLabelPosition=bottom;verticalAlign=top;align=center;html=1;fontSize=12;fontStyle=0;aspect=fixed;pointerEvents=1;shape=mxgraph.aws4.magnifying_glass_2;" parent="1" vertex="1">
          <mxGeometry x="560" y="145" width="30" height="30" as="geometry" />
        </mxCell>
        <mxCell id="H_EbNWQOz75WT1NjhLlf-55" value="Cliente" style="text;html=1;align=center;verticalAlign=middle;whiteSpace=wrap;rounded=0;" parent="1" vertex="1">
          <mxGeometry x="290" y="220" width="60" height="30" as="geometry" />
        </mxCell>
        <mxCell id="H_EbNWQOz75WT1NjhLlf-56" value="CPF" style="text;html=1;align=center;verticalAlign=middle;whiteSpace=wrap;rounded=0;" parent="1" vertex="1">
          <mxGeometry x="395" y="220" width="60" height="30" as="geometry" />
        </mxCell>
        <mxCell id="H_EbNWQOz75WT1NjhLlf-57" value="Telefone" style="text;html=1;align=center;verticalAlign=middle;whiteSpace=wrap;rounded=0;" parent="1" vertex="1">
          <mxGeometry x="520" y="220" width="60" height="30" as="geometry" />
        </mxCell>
        <mxCell id="H_EbNWQOz75WT1NjhLlf-58" style="edgeStyle=orthogonalEdgeStyle;rounded=0;orthogonalLoop=1;jettySize=auto;html=1;exitX=1;exitY=0.5;exitDx=0;exitDy=0;entryX=1;entryY=0.75;entryDx=0;entryDy=0;" parent="1" source="H_EbNWQOz75WT1NjhLlf-5" target="H_EbNWQOz75WT1NjhLlf-5" edge="1">
          <mxGeometry relative="1" as="geometry" />
        </mxCell>
        <mxCell id="l9FqjhTCHkW5NsNl6lGr-80" value="" style="shape=table;startSize=0;container=1;collapsible=0;childLayout=tableLayout;fontSize=16;" parent="1" vertex="1">
          <mxGeometry x="270" y="250" width="340" height="467" as="geometry" />
        </mxCell>
        <mxCell id="l9FqjhTCHkW5NsNl6lGr-81" value="" style="shape=tableRow;horizontal=0;startSize=0;swimlaneHead=0;swimlaneBody=0;strokeColor=inherit;top=0;left=0;bottom=0;right=0;collapsible=0;dropTarget=0;fillColor=none;points=[[0,0.5],[1,0.5]];portConstraint=eastwest;fontSize=16;" parent="l9FqjhTCHkW5NsNl6lGr-80" vertex="1">
          <mxGeometry width="340" height="43" as="geometry" />
        </mxCell>
        <mxCell id="l9FqjhTCHkW5NsNl6lGr-82" value="" style="shape=partialRectangle;html=1;whiteSpace=wrap;connectable=0;strokeColor=inherit;overflow=hidden;fillColor=none;top=0;left=0;bottom=0;right=0;pointerEvents=1;fontSize=16;" parent="l9FqjhTCHkW5NsNl6lGr-81" vertex="1">
          <mxGeometry width="113" height="43" as="geometry">
            <mxRectangle width="113" height="43" as="alternateBounds" />
          </mxGeometry>
        </mxCell>
        <mxCell id="l9FqjhTCHkW5NsNl6lGr-83" value="" style="shape=partialRectangle;html=1;whiteSpace=wrap;connectable=0;strokeColor=inherit;overflow=hidden;fillColor=none;top=0;left=0;bottom=0;right=0;pointerEvents=1;fontSize=16;" parent="l9FqjhTCHkW5NsNl6lGr-81" vertex="1">
          <mxGeometry x="113" width="114" height="43" as="geometry">
            <mxRectangle width="114" height="43" as="alternateBounds" />
          </mxGeometry>
        </mxCell>
        <mxCell id="l9FqjhTCHkW5NsNl6lGr-84" value="" style="shape=partialRectangle;html=1;whiteSpace=wrap;connectable=0;strokeColor=inherit;overflow=hidden;fillColor=none;top=0;left=0;bottom=0;right=0;pointerEvents=1;fontSize=16;" parent="l9FqjhTCHkW5NsNl6lGr-81" vertex="1">
          <mxGeometry x="227" width="113" height="43" as="geometry">
            <mxRectangle width="113" height="43" as="alternateBounds" />
          </mxGeometry>
        </mxCell>
        <mxCell id="l9FqjhTCHkW5NsNl6lGr-85" value="" style="shape=tableRow;horizontal=0;startSize=0;swimlaneHead=0;swimlaneBody=0;strokeColor=inherit;top=0;left=0;bottom=0;right=0;collapsible=0;dropTarget=0;fillColor=none;points=[[0,0.5],[1,0.5]];portConstraint=eastwest;fontSize=16;" parent="l9FqjhTCHkW5NsNl6lGr-80" vertex="1">
          <mxGeometry y="43" width="340" height="42" as="geometry" />
        </mxCell>
        <mxCell id="l9FqjhTCHkW5NsNl6lGr-86" value="" style="shape=partialRectangle;html=1;whiteSpace=wrap;connectable=0;strokeColor=inherit;overflow=hidden;fillColor=none;top=0;left=0;bottom=0;right=0;pointerEvents=1;fontSize=16;" parent="l9FqjhTCHkW5NsNl6lGr-85" vertex="1">
          <mxGeometry width="113" height="42" as="geometry">
            <mxRectangle width="113" height="42" as="alternateBounds" />
          </mxGeometry>
        </mxCell>
        <mxCell id="l9FqjhTCHkW5NsNl6lGr-87" value="" style="shape=partialRectangle;html=1;whiteSpace=wrap;connectable=0;strokeColor=inherit;overflow=hidden;fillColor=none;top=0;left=0;bottom=0;right=0;pointerEvents=1;fontSize=16;" parent="l9FqjhTCHkW5NsNl6lGr-85" vertex="1">
          <mxGeometry x="113" width="114" height="42" as="geometry">
            <mxRectangle width="114" height="42" as="alternateBounds" />
          </mxGeometry>
        </mxCell>
        <mxCell id="l9FqjhTCHkW5NsNl6lGr-88" value="" style="shape=partialRectangle;html=1;whiteSpace=wrap;connectable=0;strokeColor=inherit;overflow=hidden;fillColor=none;top=0;left=0;bottom=0;right=0;pointerEvents=1;fontSize=16;" parent="l9FqjhTCHkW5NsNl6lGr-85" vertex="1">
          <mxGeometry x="227" width="113" height="42" as="geometry">
            <mxRectangle width="113" height="42" as="alternateBounds" />
          </mxGeometry>
        </mxCell>
        <mxCell id="l9FqjhTCHkW5NsNl6lGr-107" value="" style="shape=tableRow;horizontal=0;startSize=0;swimlaneHead=0;swimlaneBody=0;strokeColor=inherit;top=0;left=0;bottom=0;right=0;collapsible=0;dropTarget=0;fillColor=none;points=[[0,0.5],[1,0.5]];portConstraint=eastwest;fontSize=16;" parent="l9FqjhTCHkW5NsNl6lGr-80" vertex="1">
          <mxGeometry y="85" width="340" height="42" as="geometry" />
        </mxCell>
        <mxCell id="l9FqjhTCHkW5NsNl6lGr-108" value="" style="shape=partialRectangle;html=1;whiteSpace=wrap;connectable=0;strokeColor=inherit;overflow=hidden;fillColor=none;top=0;left=0;bottom=0;right=0;pointerEvents=1;fontSize=16;" parent="l9FqjhTCHkW5NsNl6lGr-107" vertex="1">
          <mxGeometry width="113" height="42" as="geometry">
            <mxRectangle width="113" height="42" as="alternateBounds" />
          </mxGeometry>
        </mxCell>
        <mxCell id="l9FqjhTCHkW5NsNl6lGr-109" value="" style="shape=partialRectangle;html=1;whiteSpace=wrap;connectable=0;strokeColor=inherit;overflow=hidden;fillColor=none;top=0;left=0;bottom=0;right=0;pointerEvents=1;fontSize=16;" parent="l9FqjhTCHkW5NsNl6lGr-107" vertex="1">
          <mxGeometry x="113" width="114" height="42" as="geometry">
            <mxRectangle width="114" height="42" as="alternateBounds" />
          </mxGeometry>
        </mxCell>
        <mxCell id="l9FqjhTCHkW5NsNl6lGr-110" value="" style="shape=partialRectangle;html=1;whiteSpace=wrap;connectable=0;strokeColor=inherit;overflow=hidden;fillColor=none;top=0;left=0;bottom=0;right=0;pointerEvents=1;fontSize=16;" parent="l9FqjhTCHkW5NsNl6lGr-107" vertex="1">
          <mxGeometry x="227" width="113" height="42" as="geometry">
            <mxRectangle width="113" height="42" as="alternateBounds" />
          </mxGeometry>
        </mxCell>
        <mxCell id="l9FqjhTCHkW5NsNl6lGr-111" value="" style="shape=tableRow;horizontal=0;startSize=0;swimlaneHead=0;swimlaneBody=0;strokeColor=inherit;top=0;left=0;bottom=0;right=0;collapsible=0;dropTarget=0;fillColor=none;points=[[0,0.5],[1,0.5]];portConstraint=eastwest;fontSize=16;" parent="l9FqjhTCHkW5NsNl6lGr-80" vertex="1">
          <mxGeometry y="127" width="340" height="43" as="geometry" />
        </mxCell>
        <mxCell id="l9FqjhTCHkW5NsNl6lGr-112" value="" style="shape=partialRectangle;html=1;whiteSpace=wrap;connectable=0;strokeColor=inherit;overflow=hidden;fillColor=none;top=0;left=0;bottom=0;right=0;pointerEvents=1;fontSize=16;" parent="l9FqjhTCHkW5NsNl6lGr-111" vertex="1">
          <mxGeometry width="113" height="43" as="geometry">
            <mxRectangle width="113" height="43" as="alternateBounds" />
          </mxGeometry>
        </mxCell>
        <mxCell id="l9FqjhTCHkW5NsNl6lGr-113" value="" style="shape=partialRectangle;html=1;whiteSpace=wrap;connectable=0;strokeColor=inherit;overflow=hidden;fillColor=none;top=0;left=0;bottom=0;right=0;pointerEvents=1;fontSize=16;" parent="l9FqjhTCHkW5NsNl6lGr-111" vertex="1">
          <mxGeometry x="113" width="114" height="43" as="geometry">
            <mxRectangle width="114" height="43" as="alternateBounds" />
          </mxGeometry>
        </mxCell>
        <mxCell id="l9FqjhTCHkW5NsNl6lGr-114" value="" style="shape=partialRectangle;html=1;whiteSpace=wrap;connectable=0;strokeColor=inherit;overflow=hidden;fillColor=none;top=0;left=0;bottom=0;right=0;pointerEvents=1;fontSize=16;" parent="l9FqjhTCHkW5NsNl6lGr-111" vertex="1">
          <mxGeometry x="227" width="113" height="43" as="geometry">
            <mxRectangle width="113" height="43" as="alternateBounds" />
          </mxGeometry>
        </mxCell>
        <mxCell id="l9FqjhTCHkW5NsNl6lGr-115" value="" style="shape=tableRow;horizontal=0;startSize=0;swimlaneHead=0;swimlaneBody=0;strokeColor=inherit;top=0;left=0;bottom=0;right=0;collapsible=0;dropTarget=0;fillColor=none;points=[[0,0.5],[1,0.5]];portConstraint=eastwest;fontSize=16;" parent="l9FqjhTCHkW5NsNl6lGr-80" vertex="1">
          <mxGeometry y="170" width="340" height="42" as="geometry" />
        </mxCell>
        <mxCell id="l9FqjhTCHkW5NsNl6lGr-116" value="" style="shape=partialRectangle;html=1;whiteSpace=wrap;connectable=0;strokeColor=inherit;overflow=hidden;fillColor=none;top=0;left=0;bottom=0;right=0;pointerEvents=1;fontSize=16;" parent="l9FqjhTCHkW5NsNl6lGr-115" vertex="1">
          <mxGeometry width="113" height="42" as="geometry">
            <mxRectangle width="113" height="42" as="alternateBounds" />
          </mxGeometry>
        </mxCell>
        <mxCell id="l9FqjhTCHkW5NsNl6lGr-117" value="" style="shape=partialRectangle;html=1;whiteSpace=wrap;connectable=0;strokeColor=inherit;overflow=hidden;fillColor=none;top=0;left=0;bottom=0;right=0;pointerEvents=1;fontSize=16;" parent="l9FqjhTCHkW5NsNl6lGr-115" vertex="1">
          <mxGeometry x="113" width="114" height="42" as="geometry">
            <mxRectangle width="114" height="42" as="alternateBounds" />
          </mxGeometry>
        </mxCell>
        <mxCell id="l9FqjhTCHkW5NsNl6lGr-118" value="" style="shape=partialRectangle;html=1;whiteSpace=wrap;connectable=0;strokeColor=inherit;overflow=hidden;fillColor=none;top=0;left=0;bottom=0;right=0;pointerEvents=1;fontSize=16;" parent="l9FqjhTCHkW5NsNl6lGr-115" vertex="1">
          <mxGeometry x="227" width="113" height="42" as="geometry">
            <mxRectangle width="113" height="42" as="alternateBounds" />
          </mxGeometry>
        </mxCell>
        <mxCell id="l9FqjhTCHkW5NsNl6lGr-68" value="" style="shape=tableRow;horizontal=0;startSize=0;swimlaneHead=0;swimlaneBody=0;strokeColor=inherit;top=0;left=0;bottom=0;right=0;collapsible=0;dropTarget=0;fillColor=none;points=[[0,0.5],[1,0.5]];portConstraint=eastwest;fontSize=16;" parent="l9FqjhTCHkW5NsNl6lGr-80" vertex="1">
          <mxGeometry y="212" width="340" height="43" as="geometry" />
        </mxCell>
        <mxCell id="l9FqjhTCHkW5NsNl6lGr-69" value="" style="shape=partialRectangle;html=1;whiteSpace=wrap;connectable=0;strokeColor=inherit;overflow=hidden;fillColor=none;top=0;left=0;bottom=0;right=0;pointerEvents=1;fontSize=16;" parent="l9FqjhTCHkW5NsNl6lGr-68" vertex="1">
          <mxGeometry width="113" height="43" as="geometry">
            <mxRectangle width="113" height="43" as="alternateBounds" />
          </mxGeometry>
        </mxCell>
        <mxCell id="l9FqjhTCHkW5NsNl6lGr-70" value="" style="shape=partialRectangle;html=1;whiteSpace=wrap;connectable=0;strokeColor=inherit;overflow=hidden;fillColor=none;top=0;left=0;bottom=0;right=0;pointerEvents=1;fontSize=16;" parent="l9FqjhTCHkW5NsNl6lGr-68" vertex="1">
          <mxGeometry x="113" width="114" height="43" as="geometry">
            <mxRectangle width="114" height="43" as="alternateBounds" />
          </mxGeometry>
        </mxCell>
        <mxCell id="l9FqjhTCHkW5NsNl6lGr-71" value="" style="shape=partialRectangle;html=1;whiteSpace=wrap;connectable=0;strokeColor=inherit;overflow=hidden;fillColor=none;top=0;left=0;bottom=0;right=0;pointerEvents=1;fontSize=16;" parent="l9FqjhTCHkW5NsNl6lGr-68" vertex="1">
          <mxGeometry x="227" width="113" height="43" as="geometry">
            <mxRectangle width="113" height="43" as="alternateBounds" />
          </mxGeometry>
        </mxCell>
        <mxCell id="l9FqjhTCHkW5NsNl6lGr-72" value="" style="shape=tableRow;horizontal=0;startSize=0;swimlaneHead=0;swimlaneBody=0;strokeColor=inherit;top=0;left=0;bottom=0;right=0;collapsible=0;dropTarget=0;fillColor=none;points=[[0,0.5],[1,0.5]];portConstraint=eastwest;fontSize=16;" parent="l9FqjhTCHkW5NsNl6lGr-80" vertex="1">
          <mxGeometry y="255" width="340" height="42" as="geometry" />
        </mxCell>
        <mxCell id="l9FqjhTCHkW5NsNl6lGr-73" value="" style="shape=partialRectangle;html=1;whiteSpace=wrap;connectable=0;strokeColor=inherit;overflow=hidden;fillColor=none;top=0;left=0;bottom=0;right=0;pointerEvents=1;fontSize=16;" parent="l9FqjhTCHkW5NsNl6lGr-72" vertex="1">
          <mxGeometry width="113" height="42" as="geometry">
            <mxRectangle width="113" height="42" as="alternateBounds" />
          </mxGeometry>
        </mxCell>
        <mxCell id="l9FqjhTCHkW5NsNl6lGr-74" value="" style="shape=partialRectangle;html=1;whiteSpace=wrap;connectable=0;strokeColor=inherit;overflow=hidden;fillColor=none;top=0;left=0;bottom=0;right=0;pointerEvents=1;fontSize=16;" parent="l9FqjhTCHkW5NsNl6lGr-72" vertex="1">
          <mxGeometry x="113" width="114" height="42" as="geometry">
            <mxRectangle width="114" height="42" as="alternateBounds" />
          </mxGeometry>
        </mxCell>
        <mxCell id="l9FqjhTCHkW5NsNl6lGr-75" value="" style="shape=partialRectangle;html=1;whiteSpace=wrap;connectable=0;strokeColor=inherit;overflow=hidden;fillColor=none;top=0;left=0;bottom=0;right=0;pointerEvents=1;fontSize=16;" parent="l9FqjhTCHkW5NsNl6lGr-72" vertex="1">
          <mxGeometry x="227" width="113" height="42" as="geometry">
            <mxRectangle width="113" height="42" as="alternateBounds" />
          </mxGeometry>
        </mxCell>
        <mxCell id="l9FqjhTCHkW5NsNl6lGr-76" value="" style="shape=tableRow;horizontal=0;startSize=0;swimlaneHead=0;swimlaneBody=0;strokeColor=inherit;top=0;left=0;bottom=0;right=0;collapsible=0;dropTarget=0;fillColor=none;points=[[0,0.5],[1,0.5]];portConstraint=eastwest;fontSize=16;" parent="l9FqjhTCHkW5NsNl6lGr-80" vertex="1">
          <mxGeometry y="297" width="340" height="43" as="geometry" />
        </mxCell>
        <mxCell id="l9FqjhTCHkW5NsNl6lGr-77" value="" style="shape=partialRectangle;html=1;whiteSpace=wrap;connectable=0;strokeColor=inherit;overflow=hidden;fillColor=none;top=0;left=0;bottom=0;right=0;pointerEvents=1;fontSize=16;" parent="l9FqjhTCHkW5NsNl6lGr-76" vertex="1">
          <mxGeometry width="113" height="43" as="geometry">
            <mxRectangle width="113" height="43" as="alternateBounds" />
          </mxGeometry>
        </mxCell>
        <mxCell id="l9FqjhTCHkW5NsNl6lGr-78" value="" style="shape=partialRectangle;html=1;whiteSpace=wrap;connectable=0;strokeColor=inherit;overflow=hidden;fillColor=none;top=0;left=0;bottom=0;right=0;pointerEvents=1;fontSize=16;" parent="l9FqjhTCHkW5NsNl6lGr-76" vertex="1">
          <mxGeometry x="113" width="114" height="43" as="geometry">
            <mxRectangle width="114" height="43" as="alternateBounds" />
          </mxGeometry>
        </mxCell>
        <mxCell id="l9FqjhTCHkW5NsNl6lGr-79" value="" style="shape=partialRectangle;html=1;whiteSpace=wrap;connectable=0;strokeColor=inherit;overflow=hidden;fillColor=none;top=0;left=0;bottom=0;right=0;pointerEvents=1;fontSize=16;" parent="l9FqjhTCHkW5NsNl6lGr-76" vertex="1">
          <mxGeometry x="227" width="113" height="43" as="geometry">
            <mxRectangle width="113" height="43" as="alternateBounds" />
          </mxGeometry>
        </mxCell>
        <mxCell id="l9FqjhTCHkW5NsNl6lGr-98" value="" style="shape=tableRow;horizontal=0;startSize=0;swimlaneHead=0;swimlaneBody=0;strokeColor=inherit;top=0;left=0;bottom=0;right=0;collapsible=0;dropTarget=0;fillColor=none;points=[[0,0.5],[1,0.5]];portConstraint=eastwest;fontSize=16;" parent="l9FqjhTCHkW5NsNl6lGr-80" vertex="1">
          <mxGeometry y="340" width="340" height="42" as="geometry" />
        </mxCell>
        <mxCell id="l9FqjhTCHkW5NsNl6lGr-99" value="" style="shape=partialRectangle;html=1;whiteSpace=wrap;connectable=0;strokeColor=inherit;overflow=hidden;fillColor=none;top=0;left=0;bottom=0;right=0;pointerEvents=1;fontSize=16;" parent="l9FqjhTCHkW5NsNl6lGr-98" vertex="1">
          <mxGeometry width="113" height="42" as="geometry">
            <mxRectangle width="113" height="42" as="alternateBounds" />
          </mxGeometry>
        </mxCell>
        <mxCell id="l9FqjhTCHkW5NsNl6lGr-100" value="" style="shape=partialRectangle;html=1;whiteSpace=wrap;connectable=0;strokeColor=inherit;overflow=hidden;fillColor=none;top=0;left=0;bottom=0;right=0;pointerEvents=1;fontSize=16;" parent="l9FqjhTCHkW5NsNl6lGr-98" vertex="1">
          <mxGeometry x="113" width="114" height="42" as="geometry">
            <mxRectangle width="114" height="42" as="alternateBounds" />
          </mxGeometry>
        </mxCell>
        <mxCell id="l9FqjhTCHkW5NsNl6lGr-101" value="" style="shape=partialRectangle;html=1;whiteSpace=wrap;connectable=0;strokeColor=inherit;overflow=hidden;fillColor=none;top=0;left=0;bottom=0;right=0;pointerEvents=1;fontSize=16;" parent="l9FqjhTCHkW5NsNl6lGr-98" vertex="1">
          <mxGeometry x="227" width="113" height="42" as="geometry">
            <mxRectangle width="113" height="42" as="alternateBounds" />
          </mxGeometry>
        </mxCell>
        <mxCell id="l9FqjhTCHkW5NsNl6lGr-94" value="" style="shape=tableRow;horizontal=0;startSize=0;swimlaneHead=0;swimlaneBody=0;strokeColor=inherit;top=0;left=0;bottom=0;right=0;collapsible=0;dropTarget=0;fillColor=none;points=[[0,0.5],[1,0.5]];portConstraint=eastwest;fontSize=16;" parent="l9FqjhTCHkW5NsNl6lGr-80" vertex="1">
          <mxGeometry y="382" width="340" height="43" as="geometry" />
        </mxCell>
        <mxCell id="l9FqjhTCHkW5NsNl6lGr-95" value="" style="shape=partialRectangle;html=1;whiteSpace=wrap;connectable=0;strokeColor=inherit;overflow=hidden;fillColor=none;top=0;left=0;bottom=0;right=0;pointerEvents=1;fontSize=16;" parent="l9FqjhTCHkW5NsNl6lGr-94" vertex="1">
          <mxGeometry width="113" height="43" as="geometry">
            <mxRectangle width="113" height="43" as="alternateBounds" />
          </mxGeometry>
        </mxCell>
        <mxCell id="l9FqjhTCHkW5NsNl6lGr-96" value="" style="shape=partialRectangle;html=1;whiteSpace=wrap;connectable=0;strokeColor=inherit;overflow=hidden;fillColor=none;top=0;left=0;bottom=0;right=0;pointerEvents=1;fontSize=16;" parent="l9FqjhTCHkW5NsNl6lGr-94" vertex="1">
          <mxGeometry x="113" width="114" height="43" as="geometry">
            <mxRectangle width="114" height="43" as="alternateBounds" />
          </mxGeometry>
        </mxCell>
        <mxCell id="l9FqjhTCHkW5NsNl6lGr-97" value="" style="shape=partialRectangle;html=1;whiteSpace=wrap;connectable=0;strokeColor=inherit;overflow=hidden;fillColor=none;top=0;left=0;bottom=0;right=0;pointerEvents=1;fontSize=16;" parent="l9FqjhTCHkW5NsNl6lGr-94" vertex="1">
          <mxGeometry x="227" width="113" height="43" as="geometry">
            <mxRectangle width="113" height="43" as="alternateBounds" />
          </mxGeometry>
        </mxCell>
        <mxCell id="l9FqjhTCHkW5NsNl6lGr-102" value="" style="shape=tableRow;horizontal=0;startSize=0;swimlaneHead=0;swimlaneBody=0;strokeColor=inherit;top=0;left=0;bottom=0;right=0;collapsible=0;dropTarget=0;fillColor=none;points=[[0,0.5],[1,0.5]];portConstraint=eastwest;fontSize=16;" parent="l9FqjhTCHkW5NsNl6lGr-80" vertex="1">
          <mxGeometry y="425" width="340" height="42" as="geometry" />
        </mxCell>
        <mxCell id="l9FqjhTCHkW5NsNl6lGr-103" value="" style="shape=partialRectangle;html=1;whiteSpace=wrap;connectable=0;strokeColor=inherit;overflow=hidden;fillColor=none;top=0;left=0;bottom=0;right=0;pointerEvents=1;fontSize=16;" parent="l9FqjhTCHkW5NsNl6lGr-102" vertex="1">
          <mxGeometry width="113" height="42" as="geometry">
            <mxRectangle width="113" height="42" as="alternateBounds" />
          </mxGeometry>
        </mxCell>
        <mxCell id="l9FqjhTCHkW5NsNl6lGr-104" value="" style="shape=partialRectangle;html=1;whiteSpace=wrap;connectable=0;strokeColor=inherit;overflow=hidden;fillColor=none;top=0;left=0;bottom=0;right=0;pointerEvents=1;fontSize=16;" parent="l9FqjhTCHkW5NsNl6lGr-102" vertex="1">
          <mxGeometry x="113" width="114" height="42" as="geometry">
            <mxRectangle width="114" height="42" as="alternateBounds" />
          </mxGeometry>
        </mxCell>
        <mxCell id="l9FqjhTCHkW5NsNl6lGr-105" value="" style="shape=partialRectangle;html=1;whiteSpace=wrap;connectable=0;strokeColor=inherit;overflow=hidden;fillColor=none;top=0;left=0;bottom=0;right=0;pointerEvents=1;fontSize=16;" parent="l9FqjhTCHkW5NsNl6lGr-102" vertex="1">
          <mxGeometry x="227" width="113" height="42" as="geometry">
            <mxRectangle width="113" height="42" as="alternateBounds" />
          </mxGeometry>
        </mxCell>
        <mxCell id="l9FqjhTCHkW5NsNl6lGr-131" value="&lt;font style=&quot;font-size: 32px;&quot;&gt;+&lt;/font&gt;" style="rounded=1;whiteSpace=wrap;html=1;fillColor=#d5e8d4;strokeColor=#82b366;" parent="1" vertex="1">
          <mxGeometry x="580" y="730" width="30" height="30" as="geometry" />
        </mxCell>
        <mxCell id="U7-Bne6vPr2ETIkwVhDn-25" value="" style="group" parent="1" vertex="1" connectable="0">
          <mxGeometry x="1070" y="-425" width="2" height="12" as="geometry" />
        </mxCell>
        <mxCell id="U7-Bne6vPr2ETIkwVhDn-26" value="" style="ellipse;whiteSpace=wrap;html=1;rotation=0;fillColor=#000000;" parent="U7-Bne6vPr2ETIkwVhDn-25" vertex="1">
          <mxGeometry width="2" height="2" as="geometry" />
        </mxCell>
        <mxCell id="U7-Bne6vPr2ETIkwVhDn-27" value="" style="ellipse;whiteSpace=wrap;html=1;rotation=0;fillColor=#000000;" parent="U7-Bne6vPr2ETIkwVhDn-25" vertex="1">
          <mxGeometry y="5" width="2" height="2" as="geometry" />
        </mxCell>
        <mxCell id="U7-Bne6vPr2ETIkwVhDn-28" value="" style="ellipse;whiteSpace=wrap;html=1;rotation=0;fillColor=#000000;" parent="U7-Bne6vPr2ETIkwVhDn-25" vertex="1">
          <mxGeometry y="10" width="2" height="2" as="geometry" />
        </mxCell>
        <mxCell id="U7-Bne6vPr2ETIkwVhDn-35" value="" style="group" parent="1" vertex="1" connectable="0">
          <mxGeometry x="220" y="260" width="30" height="25" as="geometry" />
        </mxCell>
        <mxCell id="l9FqjhTCHkW5NsNl6lGr-55" value="" style="rounded=0;whiteSpace=wrap;html=1;" parent="U7-Bne6vPr2ETIkwVhDn-35" vertex="1">
          <mxGeometry width="30" height="25" as="geometry" />
        </mxCell>
        <mxCell id="U7-Bne6vPr2ETIkwVhDn-1" value="" style="group" parent="U7-Bne6vPr2ETIkwVhDn-35" vertex="1" connectable="0">
          <mxGeometry x="14" y="6.5" width="2" height="12" as="geometry" />
        </mxCell>
        <mxCell id="U7-Bne6vPr2ETIkwVhDn-2" value="" style="ellipse;whiteSpace=wrap;html=1;rotation=0;fillColor=#000000;" parent="U7-Bne6vPr2ETIkwVhDn-1" vertex="1">
          <mxGeometry width="2" height="2" as="geometry" />
        </mxCell>
        <mxCell id="U7-Bne6vPr2ETIkwVhDn-3" value="" style="ellipse;whiteSpace=wrap;html=1;rotation=0;fillColor=#000000;" parent="U7-Bne6vPr2ETIkwVhDn-1" vertex="1">
          <mxGeometry y="5" width="2" height="2" as="geometry" />
        </mxCell>
        <mxCell id="U7-Bne6vPr2ETIkwVhDn-4" value="" style="ellipse;whiteSpace=wrap;html=1;rotation=0;fillColor=#000000;" parent="U7-Bne6vPr2ETIkwVhDn-1" vertex="1">
          <mxGeometry y="10" width="2" height="2" as="geometry" />
        </mxCell>
        <mxCell id="U7-Bne6vPr2ETIkwVhDn-38" value="" style="group" parent="1" vertex="1" connectable="0">
          <mxGeometry x="220" y="300" width="30" height="25" as="geometry" />
        </mxCell>
        <mxCell id="U7-Bne6vPr2ETIkwVhDn-39" value="" style="rounded=0;whiteSpace=wrap;html=1;" parent="U7-Bne6vPr2ETIkwVhDn-38" vertex="1">
          <mxGeometry width="30" height="25" as="geometry" />
        </mxCell>
        <mxCell id="U7-Bne6vPr2ETIkwVhDn-40" value="" style="group" parent="U7-Bne6vPr2ETIkwVhDn-38" vertex="1" connectable="0">
          <mxGeometry x="14" y="6.5" width="2" height="12" as="geometry" />
        </mxCell>
        <mxCell id="U7-Bne6vPr2ETIkwVhDn-41" value="" style="ellipse;whiteSpace=wrap;html=1;rotation=0;fillColor=#000000;" parent="U7-Bne6vPr2ETIkwVhDn-40" vertex="1">
          <mxGeometry width="2" height="2" as="geometry" />
        </mxCell>
        <mxCell id="U7-Bne6vPr2ETIkwVhDn-42" value="" style="ellipse;whiteSpace=wrap;html=1;rotation=0;fillColor=#000000;" parent="U7-Bne6vPr2ETIkwVhDn-40" vertex="1">
          <mxGeometry y="5" width="2" height="2" as="geometry" />
        </mxCell>
        <mxCell id="U7-Bne6vPr2ETIkwVhDn-43" value="" style="ellipse;whiteSpace=wrap;html=1;rotation=0;fillColor=#000000;" parent="U7-Bne6vPr2ETIkwVhDn-40" vertex="1">
          <mxGeometry y="10" width="2" height="2" as="geometry" />
        </mxCell>
        <mxCell id="U7-Bne6vPr2ETIkwVhDn-45" value="" style="group" parent="1" vertex="1" connectable="0">
          <mxGeometry x="220" y="340" width="30" height="25" as="geometry" />
        </mxCell>
        <mxCell id="U7-Bne6vPr2ETIkwVhDn-46" value="" style="rounded=0;whiteSpace=wrap;html=1;" parent="U7-Bne6vPr2ETIkwVhDn-45" vertex="1">
          <mxGeometry width="30" height="25" as="geometry" />
        </mxCell>
        <mxCell id="U7-Bne6vPr2ETIkwVhDn-47" value="" style="group" parent="U7-Bne6vPr2ETIkwVhDn-45" vertex="1" connectable="0">
          <mxGeometry x="14" y="6.5" width="2" height="12" as="geometry" />
        </mxCell>
        <mxCell id="U7-Bne6vPr2ETIkwVhDn-48" value="" style="ellipse;whiteSpace=wrap;html=1;rotation=0;fillColor=#000000;" parent="U7-Bne6vPr2ETIkwVhDn-47" vertex="1">
          <mxGeometry width="2" height="2" as="geometry" />
        </mxCell>
        <mxCell id="U7-Bne6vPr2ETIkwVhDn-49" value="" style="ellipse;whiteSpace=wrap;html=1;rotation=0;fillColor=#000000;" parent="U7-Bne6vPr2ETIkwVhDn-47" vertex="1">
          <mxGeometry y="5" width="2" height="2" as="geometry" />
        </mxCell>
        <mxCell id="U7-Bne6vPr2ETIkwVhDn-50" value="" style="ellipse;whiteSpace=wrap;html=1;rotation=0;fillColor=#000000;" parent="U7-Bne6vPr2ETIkwVhDn-47" vertex="1">
          <mxGeometry y="10" width="2" height="2" as="geometry" />
        </mxCell>
        <mxCell id="U7-Bne6vPr2ETIkwVhDn-51" value="" style="group" parent="1" vertex="1" connectable="0">
          <mxGeometry x="220" y="387.5" width="30" height="25" as="geometry" />
        </mxCell>
        <mxCell id="U7-Bne6vPr2ETIkwVhDn-52" value="" style="rounded=0;whiteSpace=wrap;html=1;" parent="U7-Bne6vPr2ETIkwVhDn-51" vertex="1">
          <mxGeometry width="30" height="25" as="geometry" />
        </mxCell>
        <mxCell id="U7-Bne6vPr2ETIkwVhDn-53" value="" style="group" parent="U7-Bne6vPr2ETIkwVhDn-51" vertex="1" connectable="0">
          <mxGeometry x="14" y="6.5" width="2" height="12" as="geometry" />
        </mxCell>
        <mxCell id="U7-Bne6vPr2ETIkwVhDn-54" value="" style="ellipse;whiteSpace=wrap;html=1;rotation=0;fillColor=#000000;" parent="U7-Bne6vPr2ETIkwVhDn-53" vertex="1">
          <mxGeometry width="2" height="2" as="geometry" />
        </mxCell>
        <mxCell id="U7-Bne6vPr2ETIkwVhDn-55" value="" style="ellipse;whiteSpace=wrap;html=1;rotation=0;fillColor=#000000;" parent="U7-Bne6vPr2ETIkwVhDn-53" vertex="1">
          <mxGeometry y="5" width="2" height="2" as="geometry" />
        </mxCell>
        <mxCell id="U7-Bne6vPr2ETIkwVhDn-56" value="" style="ellipse;whiteSpace=wrap;html=1;rotation=0;fillColor=#000000;" parent="U7-Bne6vPr2ETIkwVhDn-53" vertex="1">
          <mxGeometry y="10" width="2" height="2" as="geometry" />
        </mxCell>
        <mxCell id="U7-Bne6vPr2ETIkwVhDn-58" value="" style="group" parent="1" vertex="1" connectable="0">
          <mxGeometry x="220" y="430" width="30" height="25" as="geometry" />
        </mxCell>
        <mxCell id="U7-Bne6vPr2ETIkwVhDn-59" value="" style="rounded=0;whiteSpace=wrap;html=1;" parent="U7-Bne6vPr2ETIkwVhDn-58" vertex="1">
          <mxGeometry width="30" height="25" as="geometry" />
        </mxCell>
        <mxCell id="U7-Bne6vPr2ETIkwVhDn-60" value="" style="group" parent="U7-Bne6vPr2ETIkwVhDn-58" vertex="1" connectable="0">
          <mxGeometry x="14" y="6.5" width="2" height="12" as="geometry" />
        </mxCell>
        <mxCell id="U7-Bne6vPr2ETIkwVhDn-61" value="" style="ellipse;whiteSpace=wrap;html=1;rotation=0;fillColor=#000000;" parent="U7-Bne6vPr2ETIkwVhDn-60" vertex="1">
          <mxGeometry width="2" height="2" as="geometry" />
        </mxCell>
        <mxCell id="U7-Bne6vPr2ETIkwVhDn-62" value="" style="ellipse;whiteSpace=wrap;html=1;rotation=0;fillColor=#000000;" parent="U7-Bne6vPr2ETIkwVhDn-60" vertex="1">
          <mxGeometry y="5" width="2" height="2" as="geometry" />
        </mxCell>
        <mxCell id="U7-Bne6vPr2ETIkwVhDn-63" value="" style="ellipse;whiteSpace=wrap;html=1;rotation=0;fillColor=#000000;" parent="U7-Bne6vPr2ETIkwVhDn-60" vertex="1">
          <mxGeometry y="10" width="2" height="2" as="geometry" />
        </mxCell>
        <mxCell id="U7-Bne6vPr2ETIkwVhDn-64" value="" style="group" parent="1" vertex="1" connectable="0">
          <mxGeometry x="220" y="470" width="30" height="25" as="geometry" />
        </mxCell>
        <mxCell id="U7-Bne6vPr2ETIkwVhDn-65" value="" style="rounded=0;whiteSpace=wrap;html=1;" parent="U7-Bne6vPr2ETIkwVhDn-64" vertex="1">
          <mxGeometry width="30" height="25" as="geometry" />
        </mxCell>
        <mxCell id="U7-Bne6vPr2ETIkwVhDn-66" value="" style="group" parent="U7-Bne6vPr2ETIkwVhDn-64" vertex="1" connectable="0">
          <mxGeometry x="14" y="6.5" width="2" height="12" as="geometry" />
        </mxCell>
        <mxCell id="U7-Bne6vPr2ETIkwVhDn-67" value="" style="ellipse;whiteSpace=wrap;html=1;rotation=0;fillColor=#000000;" parent="U7-Bne6vPr2ETIkwVhDn-66" vertex="1">
          <mxGeometry width="2" height="2" as="geometry" />
        </mxCell>
        <mxCell id="U7-Bne6vPr2ETIkwVhDn-68" value="" style="ellipse;whiteSpace=wrap;html=1;rotation=0;fillColor=#000000;" parent="U7-Bne6vPr2ETIkwVhDn-66" vertex="1">
          <mxGeometry y="5" width="2" height="2" as="geometry" />
        </mxCell>
        <mxCell id="U7-Bne6vPr2ETIkwVhDn-69" value="" style="ellipse;whiteSpace=wrap;html=1;rotation=0;fillColor=#000000;" parent="U7-Bne6vPr2ETIkwVhDn-66" vertex="1">
          <mxGeometry y="10" width="2" height="2" as="geometry" />
        </mxCell>
        <mxCell id="U7-Bne6vPr2ETIkwVhDn-70" value="" style="group" parent="1" vertex="1" connectable="0">
          <mxGeometry x="220" y="510" width="30" height="25" as="geometry" />
        </mxCell>
        <mxCell id="U7-Bne6vPr2ETIkwVhDn-71" value="" style="rounded=0;whiteSpace=wrap;html=1;" parent="U7-Bne6vPr2ETIkwVhDn-70" vertex="1">
          <mxGeometry width="30" height="25" as="geometry" />
        </mxCell>
        <mxCell id="U7-Bne6vPr2ETIkwVhDn-72" value="" style="group" parent="U7-Bne6vPr2ETIkwVhDn-70" vertex="1" connectable="0">
          <mxGeometry x="14" y="6.5" width="2" height="12" as="geometry" />
        </mxCell>
        <mxCell id="U7-Bne6vPr2ETIkwVhDn-73" value="" style="ellipse;whiteSpace=wrap;html=1;rotation=0;fillColor=#000000;" parent="U7-Bne6vPr2ETIkwVhDn-72" vertex="1">
          <mxGeometry width="2" height="2" as="geometry" />
        </mxCell>
        <mxCell id="U7-Bne6vPr2ETIkwVhDn-74" value="" style="ellipse;whiteSpace=wrap;html=1;rotation=0;fillColor=#000000;" parent="U7-Bne6vPr2ETIkwVhDn-72" vertex="1">
          <mxGeometry y="5" width="2" height="2" as="geometry" />
        </mxCell>
        <mxCell id="U7-Bne6vPr2ETIkwVhDn-75" value="" style="ellipse;whiteSpace=wrap;html=1;rotation=0;fillColor=#000000;" parent="U7-Bne6vPr2ETIkwVhDn-72" vertex="1">
          <mxGeometry y="10" width="2" height="2" as="geometry" />
        </mxCell>
        <mxCell id="U7-Bne6vPr2ETIkwVhDn-76" value="" style="group" parent="1" vertex="1" connectable="0">
          <mxGeometry x="220" y="560" width="30" height="25" as="geometry" />
        </mxCell>
        <mxCell id="U7-Bne6vPr2ETIkwVhDn-77" value="" style="rounded=0;whiteSpace=wrap;html=1;" parent="U7-Bne6vPr2ETIkwVhDn-76" vertex="1">
          <mxGeometry width="30" height="25" as="geometry" />
        </mxCell>
        <mxCell id="U7-Bne6vPr2ETIkwVhDn-78" value="" style="group" parent="U7-Bne6vPr2ETIkwVhDn-76" vertex="1" connectable="0">
          <mxGeometry x="14" y="6.5" width="2" height="12" as="geometry" />
        </mxCell>
        <mxCell id="U7-Bne6vPr2ETIkwVhDn-79" value="" style="ellipse;whiteSpace=wrap;html=1;rotation=0;fillColor=#000000;" parent="U7-Bne6vPr2ETIkwVhDn-78" vertex="1">
          <mxGeometry width="2" height="2" as="geometry" />
        </mxCell>
        <mxCell id="U7-Bne6vPr2ETIkwVhDn-80" value="" style="ellipse;whiteSpace=wrap;html=1;rotation=0;fillColor=#000000;" parent="U7-Bne6vPr2ETIkwVhDn-78" vertex="1">
          <mxGeometry y="5" width="2" height="2" as="geometry" />
        </mxCell>
        <mxCell id="U7-Bne6vPr2ETIkwVhDn-81" value="" style="ellipse;whiteSpace=wrap;html=1;rotation=0;fillColor=#000000;" parent="U7-Bne6vPr2ETIkwVhDn-78" vertex="1">
          <mxGeometry y="10" width="2" height="2" as="geometry" />
        </mxCell>
        <mxCell id="U7-Bne6vPr2ETIkwVhDn-89" value="" style="group" parent="1" vertex="1" connectable="0">
          <mxGeometry x="220" y="600" width="30" height="25" as="geometry" />
        </mxCell>
        <mxCell id="U7-Bne6vPr2ETIkwVhDn-90" value="" style="rounded=0;whiteSpace=wrap;html=1;" parent="U7-Bne6vPr2ETIkwVhDn-89" vertex="1">
          <mxGeometry width="30" height="25" as="geometry" />
        </mxCell>
        <mxCell id="U7-Bne6vPr2ETIkwVhDn-91" value="" style="group" parent="U7-Bne6vPr2ETIkwVhDn-89" vertex="1" connectable="0">
          <mxGeometry x="14" y="6.5" width="2" height="12" as="geometry" />
        </mxCell>
        <mxCell id="U7-Bne6vPr2ETIkwVhDn-92" value="" style="ellipse;whiteSpace=wrap;html=1;rotation=0;fillColor=#000000;" parent="U7-Bne6vPr2ETIkwVhDn-91" vertex="1">
          <mxGeometry width="2" height="2" as="geometry" />
        </mxCell>
        <mxCell id="U7-Bne6vPr2ETIkwVhDn-93" value="" style="ellipse;whiteSpace=wrap;html=1;rotation=0;fillColor=#000000;" parent="U7-Bne6vPr2ETIkwVhDn-91" vertex="1">
          <mxGeometry y="5" width="2" height="2" as="geometry" />
        </mxCell>
        <mxCell id="U7-Bne6vPr2ETIkwVhDn-94" value="" style="ellipse;whiteSpace=wrap;html=1;rotation=0;fillColor=#000000;" parent="U7-Bne6vPr2ETIkwVhDn-91" vertex="1">
          <mxGeometry y="10" width="2" height="2" as="geometry" />
        </mxCell>
        <mxCell id="U7-Bne6vPr2ETIkwVhDn-95" value="" style="group" parent="1" vertex="1" connectable="0">
          <mxGeometry x="220" y="640" width="30" height="25" as="geometry" />
        </mxCell>
        <mxCell id="U7-Bne6vPr2ETIkwVhDn-96" value="" style="rounded=0;whiteSpace=wrap;html=1;" parent="U7-Bne6vPr2ETIkwVhDn-95" vertex="1">
          <mxGeometry width="30" height="25" as="geometry" />
        </mxCell>
        <mxCell id="U7-Bne6vPr2ETIkwVhDn-97" value="" style="group" parent="U7-Bne6vPr2ETIkwVhDn-95" vertex="1" connectable="0">
          <mxGeometry x="14" y="6.5" width="2" height="12" as="geometry" />
        </mxCell>
        <mxCell id="U7-Bne6vPr2ETIkwVhDn-98" value="" style="ellipse;whiteSpace=wrap;html=1;rotation=0;fillColor=#000000;" parent="U7-Bne6vPr2ETIkwVhDn-97" vertex="1">
          <mxGeometry width="2" height="2" as="geometry" />
        </mxCell>
        <mxCell id="U7-Bne6vPr2ETIkwVhDn-99" value="" style="ellipse;whiteSpace=wrap;html=1;rotation=0;fillColor=#000000;" parent="U7-Bne6vPr2ETIkwVhDn-97" vertex="1">
          <mxGeometry y="5" width="2" height="2" as="geometry" />
        </mxCell>
        <mxCell id="U7-Bne6vPr2ETIkwVhDn-100" value="" style="ellipse;whiteSpace=wrap;html=1;rotation=0;fillColor=#000000;" parent="U7-Bne6vPr2ETIkwVhDn-97" vertex="1">
          <mxGeometry y="10" width="2" height="2" as="geometry" />
        </mxCell>
        <mxCell id="U7-Bne6vPr2ETIkwVhDn-101" value="" style="group" parent="1" vertex="1" connectable="0">
          <mxGeometry x="220" y="680" width="30" height="25" as="geometry" />
        </mxCell>
        <mxCell id="U7-Bne6vPr2ETIkwVhDn-102" value="" style="rounded=0;whiteSpace=wrap;html=1;" parent="U7-Bne6vPr2ETIkwVhDn-101" vertex="1">
          <mxGeometry width="30" height="25" as="geometry" />
        </mxCell>
        <mxCell id="U7-Bne6vPr2ETIkwVhDn-103" value="" style="group" parent="U7-Bne6vPr2ETIkwVhDn-101" vertex="1" connectable="0">
          <mxGeometry x="14" y="6.5" width="2" height="12" as="geometry" />
        </mxCell>
        <mxCell id="U7-Bne6vPr2ETIkwVhDn-104" value="" style="ellipse;whiteSpace=wrap;html=1;rotation=0;fillColor=#000000;" parent="U7-Bne6vPr2ETIkwVhDn-103" vertex="1">
          <mxGeometry width="2" height="2" as="geometry" />
        </mxCell>
        <mxCell id="U7-Bne6vPr2ETIkwVhDn-105" value="" style="ellipse;whiteSpace=wrap;html=1;rotation=0;fillColor=#000000;" parent="U7-Bne6vPr2ETIkwVhDn-103" vertex="1">
          <mxGeometry y="5" width="2" height="2" as="geometry" />
        </mxCell>
        <mxCell id="U7-Bne6vPr2ETIkwVhDn-106" value="" style="ellipse;whiteSpace=wrap;html=1;rotation=0;fillColor=#000000;" parent="U7-Bne6vPr2ETIkwVhDn-103" vertex="1">
          <mxGeometry y="10" width="2" height="2" as="geometry" />
        </mxCell>
        <mxCell id="U7-Bne6vPr2ETIkwVhDn-109" value="" style="rounded=1;whiteSpace=wrap;html=1;fillColor=#dae8fc;strokeColor=#6c8ebf;gradientColor=#ffffff;" parent="1" vertex="1">
          <mxGeometry x="770" y="20" width="803" height="450" as="geometry" />
        </mxCell>
        <mxCell id="U7-Bne6vPr2ETIkwVhDn-110" value="Listar Cliente" style="text;strokeColor=none;fillColor=none;html=1;fontSize=24;fontStyle=1;verticalAlign=middle;align=center;" parent="1" vertex="1">
          <mxGeometry x="1121.5" y="40" width="100" height="40" as="geometry" />
        </mxCell>
        <mxCell id="U7-Bne6vPr2ETIkwVhDn-111" value="Buscar Cliente..." style="rounded=1;whiteSpace=wrap;html=1;" parent="1" vertex="1">
          <mxGeometry x="1026.5" y="90" width="290" height="40" as="geometry" />
        </mxCell>
        <mxCell id="U7-Bne6vPr2ETIkwVhDn-112" value="" style="rounded=1;whiteSpace=wrap;html=1;" parent="1" vertex="1">
          <mxGeometry x="1330" y="90" width="50" height="40" as="geometry" />
        </mxCell>
        <mxCell id="U7-Bne6vPr2ETIkwVhDn-113" value="" style="sketch=0;outlineConnect=0;fontColor=#232F3E;gradientColor=none;fillColor=#232F3D;strokeColor=none;dashed=0;verticalLabelPosition=bottom;verticalAlign=top;align=center;html=1;fontSize=12;fontStyle=0;aspect=fixed;pointerEvents=1;shape=mxgraph.aws4.magnifying_glass_2;" parent="1" vertex="1">
          <mxGeometry x="1340" y="95" width="30" height="30" as="geometry" />
        </mxCell>
        <mxCell id="U7-Bne6vPr2ETIkwVhDn-114" value="Cliente" style="text;html=1;align=center;verticalAlign=middle;whiteSpace=wrap;rounded=0;" parent="1" vertex="1">
          <mxGeometry x="860" y="150" width="60" height="30" as="geometry" />
        </mxCell>
        <mxCell id="U7-Bne6vPr2ETIkwVhDn-115" value="CPF" style="text;html=1;align=center;verticalAlign=middle;whiteSpace=wrap;rounded=0;" parent="1" vertex="1">
          <mxGeometry x="1141.5" y="150" width="60" height="30" as="geometry" />
        </mxCell>
        <mxCell id="U7-Bne6vPr2ETIkwVhDn-116" value="Telefone" style="text;html=1;align=center;verticalAlign=middle;whiteSpace=wrap;rounded=0;" parent="1" vertex="1">
          <mxGeometry x="1450" y="150" width="60" height="30" as="geometry" />
        </mxCell>
        <mxCell id="U7-Bne6vPr2ETIkwVhDn-143" value="" style="shape=table;startSize=0;container=1;collapsible=0;childLayout=tableLayout;fontSize=16;" parent="1" vertex="1">
          <mxGeometry x="861.5" y="180" width="658.5" height="240" as="geometry" />
        </mxCell>
        <mxCell id="U7-Bne6vPr2ETIkwVhDn-144" value="" style="shape=tableRow;horizontal=0;startSize=0;swimlaneHead=0;swimlaneBody=0;strokeColor=inherit;top=0;left=0;bottom=0;right=0;collapsible=0;dropTarget=0;fillColor=none;points=[[0,0.5],[1,0.5]];portConstraint=eastwest;fontSize=16;" parent="U7-Bne6vPr2ETIkwVhDn-143" vertex="1">
          <mxGeometry width="658.5" height="22" as="geometry" />
        </mxCell>
        <mxCell id="U7-Bne6vPr2ETIkwVhDn-145" value="" style="shape=partialRectangle;html=1;whiteSpace=wrap;connectable=0;strokeColor=inherit;overflow=hidden;fillColor=none;top=0;left=0;bottom=0;right=0;pointerEvents=1;fontSize=16;" parent="U7-Bne6vPr2ETIkwVhDn-144" vertex="1">
          <mxGeometry width="219" height="22" as="geometry">
            <mxRectangle width="219" height="22" as="alternateBounds" />
          </mxGeometry>
        </mxCell>
        <mxCell id="U7-Bne6vPr2ETIkwVhDn-146" value="" style="shape=partialRectangle;html=1;whiteSpace=wrap;connectable=0;strokeColor=inherit;overflow=hidden;fillColor=none;top=0;left=0;bottom=0;right=0;pointerEvents=1;fontSize=16;" parent="U7-Bne6vPr2ETIkwVhDn-144" vertex="1">
          <mxGeometry x="219" width="220" height="22" as="geometry">
            <mxRectangle width="220" height="22" as="alternateBounds" />
          </mxGeometry>
        </mxCell>
        <mxCell id="U7-Bne6vPr2ETIkwVhDn-147" value="" style="shape=partialRectangle;html=1;whiteSpace=wrap;connectable=0;strokeColor=inherit;overflow=hidden;fillColor=none;top=0;left=0;bottom=0;right=0;pointerEvents=1;fontSize=16;" parent="U7-Bne6vPr2ETIkwVhDn-144" vertex="1">
          <mxGeometry x="439" width="220" height="22" as="geometry">
            <mxRectangle width="220" height="22" as="alternateBounds" />
          </mxGeometry>
        </mxCell>
        <mxCell id="U7-Bne6vPr2ETIkwVhDn-148" value="" style="shape=tableRow;horizontal=0;startSize=0;swimlaneHead=0;swimlaneBody=0;strokeColor=inherit;top=0;left=0;bottom=0;right=0;collapsible=0;dropTarget=0;fillColor=none;points=[[0,0.5],[1,0.5]];portConstraint=eastwest;fontSize=16;" parent="U7-Bne6vPr2ETIkwVhDn-143" vertex="1">
          <mxGeometry y="22" width="658.5" height="22" as="geometry" />
        </mxCell>
        <mxCell id="U7-Bne6vPr2ETIkwVhDn-149" value="" style="shape=partialRectangle;html=1;whiteSpace=wrap;connectable=0;strokeColor=inherit;overflow=hidden;fillColor=none;top=0;left=0;bottom=0;right=0;pointerEvents=1;fontSize=16;" parent="U7-Bne6vPr2ETIkwVhDn-148" vertex="1">
          <mxGeometry width="219" height="22" as="geometry">
            <mxRectangle width="219" height="22" as="alternateBounds" />
          </mxGeometry>
        </mxCell>
        <mxCell id="U7-Bne6vPr2ETIkwVhDn-150" value="" style="shape=partialRectangle;html=1;whiteSpace=wrap;connectable=0;strokeColor=inherit;overflow=hidden;fillColor=none;top=0;left=0;bottom=0;right=0;pointerEvents=1;fontSize=16;" parent="U7-Bne6vPr2ETIkwVhDn-148" vertex="1">
          <mxGeometry x="219" width="220" height="22" as="geometry">
            <mxRectangle width="220" height="22" as="alternateBounds" />
          </mxGeometry>
        </mxCell>
        <mxCell id="U7-Bne6vPr2ETIkwVhDn-151" value="" style="shape=partialRectangle;html=1;whiteSpace=wrap;connectable=0;strokeColor=inherit;overflow=hidden;fillColor=none;top=0;left=0;bottom=0;right=0;pointerEvents=1;fontSize=16;" parent="U7-Bne6vPr2ETIkwVhDn-148" vertex="1">
          <mxGeometry x="439" width="220" height="22" as="geometry">
            <mxRectangle width="220" height="22" as="alternateBounds" />
          </mxGeometry>
        </mxCell>
        <mxCell id="U7-Bne6vPr2ETIkwVhDn-152" value="" style="shape=tableRow;horizontal=0;startSize=0;swimlaneHead=0;swimlaneBody=0;strokeColor=inherit;top=0;left=0;bottom=0;right=0;collapsible=0;dropTarget=0;fillColor=none;points=[[0,0.5],[1,0.5]];portConstraint=eastwest;fontSize=16;" parent="U7-Bne6vPr2ETIkwVhDn-143" vertex="1">
          <mxGeometry y="44" width="658.5" height="22" as="geometry" />
        </mxCell>
        <mxCell id="U7-Bne6vPr2ETIkwVhDn-153" value="" style="shape=partialRectangle;html=1;whiteSpace=wrap;connectable=0;strokeColor=inherit;overflow=hidden;fillColor=none;top=0;left=0;bottom=0;right=0;pointerEvents=1;fontSize=16;" parent="U7-Bne6vPr2ETIkwVhDn-152" vertex="1">
          <mxGeometry width="219" height="22" as="geometry">
            <mxRectangle width="219" height="22" as="alternateBounds" />
          </mxGeometry>
        </mxCell>
        <mxCell id="U7-Bne6vPr2ETIkwVhDn-154" value="" style="shape=partialRectangle;html=1;whiteSpace=wrap;connectable=0;strokeColor=inherit;overflow=hidden;fillColor=none;top=0;left=0;bottom=0;right=0;pointerEvents=1;fontSize=16;" parent="U7-Bne6vPr2ETIkwVhDn-152" vertex="1">
          <mxGeometry x="219" width="220" height="22" as="geometry">
            <mxRectangle width="220" height="22" as="alternateBounds" />
          </mxGeometry>
        </mxCell>
        <mxCell id="U7-Bne6vPr2ETIkwVhDn-155" value="" style="shape=partialRectangle;html=1;whiteSpace=wrap;connectable=0;strokeColor=inherit;overflow=hidden;fillColor=none;top=0;left=0;bottom=0;right=0;pointerEvents=1;fontSize=16;" parent="U7-Bne6vPr2ETIkwVhDn-152" vertex="1">
          <mxGeometry x="439" width="220" height="22" as="geometry">
            <mxRectangle width="220" height="22" as="alternateBounds" />
          </mxGeometry>
        </mxCell>
        <mxCell id="U7-Bne6vPr2ETIkwVhDn-156" value="" style="shape=tableRow;horizontal=0;startSize=0;swimlaneHead=0;swimlaneBody=0;strokeColor=inherit;top=0;left=0;bottom=0;right=0;collapsible=0;dropTarget=0;fillColor=none;points=[[0,0.5],[1,0.5]];portConstraint=eastwest;fontSize=16;" parent="U7-Bne6vPr2ETIkwVhDn-143" vertex="1">
          <mxGeometry y="66" width="658.5" height="22" as="geometry" />
        </mxCell>
        <mxCell id="U7-Bne6vPr2ETIkwVhDn-157" value="" style="shape=partialRectangle;html=1;whiteSpace=wrap;connectable=0;strokeColor=inherit;overflow=hidden;fillColor=none;top=0;left=0;bottom=0;right=0;pointerEvents=1;fontSize=16;" parent="U7-Bne6vPr2ETIkwVhDn-156" vertex="1">
          <mxGeometry width="219" height="22" as="geometry">
            <mxRectangle width="219" height="22" as="alternateBounds" />
          </mxGeometry>
        </mxCell>
        <mxCell id="U7-Bne6vPr2ETIkwVhDn-158" value="" style="shape=partialRectangle;html=1;whiteSpace=wrap;connectable=0;strokeColor=inherit;overflow=hidden;fillColor=none;top=0;left=0;bottom=0;right=0;pointerEvents=1;fontSize=16;" parent="U7-Bne6vPr2ETIkwVhDn-156" vertex="1">
          <mxGeometry x="219" width="220" height="22" as="geometry">
            <mxRectangle width="220" height="22" as="alternateBounds" />
          </mxGeometry>
        </mxCell>
        <mxCell id="U7-Bne6vPr2ETIkwVhDn-159" value="" style="shape=partialRectangle;html=1;whiteSpace=wrap;connectable=0;strokeColor=inherit;overflow=hidden;fillColor=none;top=0;left=0;bottom=0;right=0;pointerEvents=1;fontSize=16;" parent="U7-Bne6vPr2ETIkwVhDn-156" vertex="1">
          <mxGeometry x="439" width="220" height="22" as="geometry">
            <mxRectangle width="220" height="22" as="alternateBounds" />
          </mxGeometry>
        </mxCell>
        <mxCell id="U7-Bne6vPr2ETIkwVhDn-160" value="" style="shape=tableRow;horizontal=0;startSize=0;swimlaneHead=0;swimlaneBody=0;strokeColor=inherit;top=0;left=0;bottom=0;right=0;collapsible=0;dropTarget=0;fillColor=none;points=[[0,0.5],[1,0.5]];portConstraint=eastwest;fontSize=16;" parent="U7-Bne6vPr2ETIkwVhDn-143" vertex="1">
          <mxGeometry y="88" width="658.5" height="21" as="geometry" />
        </mxCell>
        <mxCell id="U7-Bne6vPr2ETIkwVhDn-161" value="" style="shape=partialRectangle;html=1;whiteSpace=wrap;connectable=0;strokeColor=inherit;overflow=hidden;fillColor=none;top=0;left=0;bottom=0;right=0;pointerEvents=1;fontSize=16;" parent="U7-Bne6vPr2ETIkwVhDn-160" vertex="1">
          <mxGeometry width="219" height="21" as="geometry">
            <mxRectangle width="219" height="21" as="alternateBounds" />
          </mxGeometry>
        </mxCell>
        <mxCell id="U7-Bne6vPr2ETIkwVhDn-162" value="" style="shape=partialRectangle;html=1;whiteSpace=wrap;connectable=0;strokeColor=inherit;overflow=hidden;fillColor=none;top=0;left=0;bottom=0;right=0;pointerEvents=1;fontSize=16;" parent="U7-Bne6vPr2ETIkwVhDn-160" vertex="1">
          <mxGeometry x="219" width="220" height="21" as="geometry">
            <mxRectangle width="220" height="21" as="alternateBounds" />
          </mxGeometry>
        </mxCell>
        <mxCell id="U7-Bne6vPr2ETIkwVhDn-163" value="" style="shape=partialRectangle;html=1;whiteSpace=wrap;connectable=0;strokeColor=inherit;overflow=hidden;fillColor=none;top=0;left=0;bottom=0;right=0;pointerEvents=1;fontSize=16;" parent="U7-Bne6vPr2ETIkwVhDn-160" vertex="1">
          <mxGeometry x="439" width="220" height="21" as="geometry">
            <mxRectangle width="220" height="21" as="alternateBounds" />
          </mxGeometry>
        </mxCell>
        <mxCell id="U7-Bne6vPr2ETIkwVhDn-164" value="" style="shape=tableRow;horizontal=0;startSize=0;swimlaneHead=0;swimlaneBody=0;strokeColor=inherit;top=0;left=0;bottom=0;right=0;collapsible=0;dropTarget=0;fillColor=none;points=[[0,0.5],[1,0.5]];portConstraint=eastwest;fontSize=16;" parent="U7-Bne6vPr2ETIkwVhDn-143" vertex="1">
          <mxGeometry y="109" width="658.5" height="22" as="geometry" />
        </mxCell>
        <mxCell id="U7-Bne6vPr2ETIkwVhDn-165" value="" style="shape=partialRectangle;html=1;whiteSpace=wrap;connectable=0;strokeColor=inherit;overflow=hidden;fillColor=none;top=0;left=0;bottom=0;right=0;pointerEvents=1;fontSize=16;" parent="U7-Bne6vPr2ETIkwVhDn-164" vertex="1">
          <mxGeometry width="219" height="22" as="geometry">
            <mxRectangle width="219" height="22" as="alternateBounds" />
          </mxGeometry>
        </mxCell>
        <mxCell id="U7-Bne6vPr2ETIkwVhDn-166" value="" style="shape=partialRectangle;html=1;whiteSpace=wrap;connectable=0;strokeColor=inherit;overflow=hidden;fillColor=none;top=0;left=0;bottom=0;right=0;pointerEvents=1;fontSize=16;" parent="U7-Bne6vPr2ETIkwVhDn-164" vertex="1">
          <mxGeometry x="219" width="220" height="22" as="geometry">
            <mxRectangle width="220" height="22" as="alternateBounds" />
          </mxGeometry>
        </mxCell>
        <mxCell id="U7-Bne6vPr2ETIkwVhDn-167" value="" style="shape=partialRectangle;html=1;whiteSpace=wrap;connectable=0;strokeColor=inherit;overflow=hidden;fillColor=none;top=0;left=0;bottom=0;right=0;pointerEvents=1;fontSize=16;" parent="U7-Bne6vPr2ETIkwVhDn-164" vertex="1">
          <mxGeometry x="439" width="220" height="22" as="geometry">
            <mxRectangle width="220" height="22" as="alternateBounds" />
          </mxGeometry>
        </mxCell>
        <mxCell id="U7-Bne6vPr2ETIkwVhDn-168" value="" style="shape=tableRow;horizontal=0;startSize=0;swimlaneHead=0;swimlaneBody=0;strokeColor=inherit;top=0;left=0;bottom=0;right=0;collapsible=0;dropTarget=0;fillColor=none;points=[[0,0.5],[1,0.5]];portConstraint=eastwest;fontSize=16;" parent="U7-Bne6vPr2ETIkwVhDn-143" vertex="1">
          <mxGeometry y="131" width="658.5" height="21" as="geometry" />
        </mxCell>
        <mxCell id="U7-Bne6vPr2ETIkwVhDn-169" value="" style="shape=partialRectangle;html=1;whiteSpace=wrap;connectable=0;strokeColor=inherit;overflow=hidden;fillColor=none;top=0;left=0;bottom=0;right=0;pointerEvents=1;fontSize=16;" parent="U7-Bne6vPr2ETIkwVhDn-168" vertex="1">
          <mxGeometry width="219" height="21" as="geometry">
            <mxRectangle width="219" height="21" as="alternateBounds" />
          </mxGeometry>
        </mxCell>
        <mxCell id="U7-Bne6vPr2ETIkwVhDn-170" value="" style="shape=partialRectangle;html=1;whiteSpace=wrap;connectable=0;strokeColor=inherit;overflow=hidden;fillColor=none;top=0;left=0;bottom=0;right=0;pointerEvents=1;fontSize=16;" parent="U7-Bne6vPr2ETIkwVhDn-168" vertex="1">
          <mxGeometry x="219" width="220" height="21" as="geometry">
            <mxRectangle width="220" height="21" as="alternateBounds" />
          </mxGeometry>
        </mxCell>
        <mxCell id="U7-Bne6vPr2ETIkwVhDn-171" value="" style="shape=partialRectangle;html=1;whiteSpace=wrap;connectable=0;strokeColor=inherit;overflow=hidden;fillColor=none;top=0;left=0;bottom=0;right=0;pointerEvents=1;fontSize=16;" parent="U7-Bne6vPr2ETIkwVhDn-168" vertex="1">
          <mxGeometry x="439" width="220" height="21" as="geometry">
            <mxRectangle width="220" height="21" as="alternateBounds" />
          </mxGeometry>
        </mxCell>
        <mxCell id="U7-Bne6vPr2ETIkwVhDn-172" value="" style="shape=tableRow;horizontal=0;startSize=0;swimlaneHead=0;swimlaneBody=0;strokeColor=inherit;top=0;left=0;bottom=0;right=0;collapsible=0;dropTarget=0;fillColor=none;points=[[0,0.5],[1,0.5]];portConstraint=eastwest;fontSize=16;" parent="U7-Bne6vPr2ETIkwVhDn-143" vertex="1">
          <mxGeometry y="152" width="658.5" height="22" as="geometry" />
        </mxCell>
        <mxCell id="U7-Bne6vPr2ETIkwVhDn-173" value="" style="shape=partialRectangle;html=1;whiteSpace=wrap;connectable=0;strokeColor=inherit;overflow=hidden;fillColor=none;top=0;left=0;bottom=0;right=0;pointerEvents=1;fontSize=16;" parent="U7-Bne6vPr2ETIkwVhDn-172" vertex="1">
          <mxGeometry width="219" height="22" as="geometry">
            <mxRectangle width="219" height="22" as="alternateBounds" />
          </mxGeometry>
        </mxCell>
        <mxCell id="U7-Bne6vPr2ETIkwVhDn-174" value="" style="shape=partialRectangle;html=1;whiteSpace=wrap;connectable=0;strokeColor=inherit;overflow=hidden;fillColor=none;top=0;left=0;bottom=0;right=0;pointerEvents=1;fontSize=16;" parent="U7-Bne6vPr2ETIkwVhDn-172" vertex="1">
          <mxGeometry x="219" width="220" height="22" as="geometry">
            <mxRectangle width="220" height="22" as="alternateBounds" />
          </mxGeometry>
        </mxCell>
        <mxCell id="U7-Bne6vPr2ETIkwVhDn-175" value="" style="shape=partialRectangle;html=1;whiteSpace=wrap;connectable=0;strokeColor=inherit;overflow=hidden;fillColor=none;top=0;left=0;bottom=0;right=0;pointerEvents=1;fontSize=16;" parent="U7-Bne6vPr2ETIkwVhDn-172" vertex="1">
          <mxGeometry x="439" width="220" height="22" as="geometry">
            <mxRectangle width="220" height="22" as="alternateBounds" />
          </mxGeometry>
        </mxCell>
        <mxCell id="U7-Bne6vPr2ETIkwVhDn-176" value="" style="shape=tableRow;horizontal=0;startSize=0;swimlaneHead=0;swimlaneBody=0;strokeColor=inherit;top=0;left=0;bottom=0;right=0;collapsible=0;dropTarget=0;fillColor=none;points=[[0,0.5],[1,0.5]];portConstraint=eastwest;fontSize=16;" parent="U7-Bne6vPr2ETIkwVhDn-143" vertex="1">
          <mxGeometry y="174" width="658.5" height="22" as="geometry" />
        </mxCell>
        <mxCell id="U7-Bne6vPr2ETIkwVhDn-177" value="" style="shape=partialRectangle;html=1;whiteSpace=wrap;connectable=0;strokeColor=inherit;overflow=hidden;fillColor=none;top=0;left=0;bottom=0;right=0;pointerEvents=1;fontSize=16;" parent="U7-Bne6vPr2ETIkwVhDn-176" vertex="1">
          <mxGeometry width="219" height="22" as="geometry">
            <mxRectangle width="219" height="22" as="alternateBounds" />
          </mxGeometry>
        </mxCell>
        <mxCell id="U7-Bne6vPr2ETIkwVhDn-178" value="" style="shape=partialRectangle;html=1;whiteSpace=wrap;connectable=0;strokeColor=inherit;overflow=hidden;fillColor=none;top=0;left=0;bottom=0;right=0;pointerEvents=1;fontSize=16;" parent="U7-Bne6vPr2ETIkwVhDn-176" vertex="1">
          <mxGeometry x="219" width="220" height="22" as="geometry">
            <mxRectangle width="220" height="22" as="alternateBounds" />
          </mxGeometry>
        </mxCell>
        <mxCell id="U7-Bne6vPr2ETIkwVhDn-179" value="" style="shape=partialRectangle;html=1;whiteSpace=wrap;connectable=0;strokeColor=inherit;overflow=hidden;fillColor=none;top=0;left=0;bottom=0;right=0;pointerEvents=1;fontSize=16;" parent="U7-Bne6vPr2ETIkwVhDn-176" vertex="1">
          <mxGeometry x="439" width="220" height="22" as="geometry">
            <mxRectangle width="220" height="22" as="alternateBounds" />
          </mxGeometry>
        </mxCell>
        <mxCell id="U7-Bne6vPr2ETIkwVhDn-180" value="" style="shape=tableRow;horizontal=0;startSize=0;swimlaneHead=0;swimlaneBody=0;strokeColor=inherit;top=0;left=0;bottom=0;right=0;collapsible=0;dropTarget=0;fillColor=none;points=[[0,0.5],[1,0.5]];portConstraint=eastwest;fontSize=16;" parent="U7-Bne6vPr2ETIkwVhDn-143" vertex="1">
          <mxGeometry y="196" width="658.5" height="22" as="geometry" />
        </mxCell>
        <mxCell id="U7-Bne6vPr2ETIkwVhDn-181" value="" style="shape=partialRectangle;html=1;whiteSpace=wrap;connectable=0;strokeColor=inherit;overflow=hidden;fillColor=none;top=0;left=0;bottom=0;right=0;pointerEvents=1;fontSize=16;" parent="U7-Bne6vPr2ETIkwVhDn-180" vertex="1">
          <mxGeometry width="219" height="22" as="geometry">
            <mxRectangle width="219" height="22" as="alternateBounds" />
          </mxGeometry>
        </mxCell>
        <mxCell id="U7-Bne6vPr2ETIkwVhDn-182" value="" style="shape=partialRectangle;html=1;whiteSpace=wrap;connectable=0;strokeColor=inherit;overflow=hidden;fillColor=none;top=0;left=0;bottom=0;right=0;pointerEvents=1;fontSize=16;" parent="U7-Bne6vPr2ETIkwVhDn-180" vertex="1">
          <mxGeometry x="219" width="220" height="22" as="geometry">
            <mxRectangle width="220" height="22" as="alternateBounds" />
          </mxGeometry>
        </mxCell>
        <mxCell id="U7-Bne6vPr2ETIkwVhDn-183" value="" style="shape=partialRectangle;html=1;whiteSpace=wrap;connectable=0;strokeColor=inherit;overflow=hidden;fillColor=none;top=0;left=0;bottom=0;right=0;pointerEvents=1;fontSize=16;" parent="U7-Bne6vPr2ETIkwVhDn-180" vertex="1">
          <mxGeometry x="439" width="220" height="22" as="geometry">
            <mxRectangle width="220" height="22" as="alternateBounds" />
          </mxGeometry>
        </mxCell>
        <mxCell id="U7-Bne6vPr2ETIkwVhDn-184" value="" style="shape=tableRow;horizontal=0;startSize=0;swimlaneHead=0;swimlaneBody=0;strokeColor=inherit;top=0;left=0;bottom=0;right=0;collapsible=0;dropTarget=0;fillColor=none;points=[[0,0.5],[1,0.5]];portConstraint=eastwest;fontSize=16;" parent="U7-Bne6vPr2ETIkwVhDn-143" vertex="1">
          <mxGeometry y="218" width="658.5" height="22" as="geometry" />
        </mxCell>
        <mxCell id="U7-Bne6vPr2ETIkwVhDn-185" value="" style="shape=partialRectangle;html=1;whiteSpace=wrap;connectable=0;strokeColor=inherit;overflow=hidden;fillColor=none;top=0;left=0;bottom=0;right=0;pointerEvents=1;fontSize=16;" parent="U7-Bne6vPr2ETIkwVhDn-184" vertex="1">
          <mxGeometry width="219" height="22" as="geometry">
            <mxRectangle width="219" height="22" as="alternateBounds" />
          </mxGeometry>
        </mxCell>
        <mxCell id="U7-Bne6vPr2ETIkwVhDn-186" value="" style="shape=partialRectangle;html=1;whiteSpace=wrap;connectable=0;strokeColor=inherit;overflow=hidden;fillColor=none;top=0;left=0;bottom=0;right=0;pointerEvents=1;fontSize=16;" parent="U7-Bne6vPr2ETIkwVhDn-184" vertex="1">
          <mxGeometry x="219" width="220" height="22" as="geometry">
            <mxRectangle width="220" height="22" as="alternateBounds" />
          </mxGeometry>
        </mxCell>
        <mxCell id="U7-Bne6vPr2ETIkwVhDn-187" value="" style="shape=partialRectangle;html=1;whiteSpace=wrap;connectable=0;strokeColor=inherit;overflow=hidden;fillColor=none;top=0;left=0;bottom=0;right=0;pointerEvents=1;fontSize=16;" parent="U7-Bne6vPr2ETIkwVhDn-184" vertex="1">
          <mxGeometry x="439" width="220" height="22" as="geometry">
            <mxRectangle width="220" height="22" as="alternateBounds" />
          </mxGeometry>
        </mxCell>
        <mxCell id="U7-Bne6vPr2ETIkwVhDn-188" value="&lt;font style=&quot;font-size: 33px;&quot;&gt;+&lt;/font&gt;" style="rounded=1;whiteSpace=wrap;html=1;fillColor=#d5e8d4;strokeColor=#82b366;" parent="1" vertex="1">
          <mxGeometry x="1480" y="430" width="30" height="30" as="geometry" />
        </mxCell>
        <mxCell id="U7-Bne6vPr2ETIkwVhDn-196" value="" style="group" parent="1" vertex="1" connectable="0">
          <mxGeometry x="827" y="180" width="20" height="20" as="geometry" />
        </mxCell>
        <mxCell id="U7-Bne6vPr2ETIkwVhDn-197" value="" style="rounded=0;whiteSpace=wrap;html=1;" parent="U7-Bne6vPr2ETIkwVhDn-196" vertex="1">
          <mxGeometry width="20" height="20" as="geometry" />
        </mxCell>
        <mxCell id="U7-Bne6vPr2ETIkwVhDn-198" value="" style="group" parent="U7-Bne6vPr2ETIkwVhDn-196" vertex="1" connectable="0">
          <mxGeometry x="9.333333333333332" y="5.2" width="1.3333333333333333" height="9.600000000000001" as="geometry" />
        </mxCell>
        <mxCell id="U7-Bne6vPr2ETIkwVhDn-199" value="" style="ellipse;whiteSpace=wrap;html=1;rotation=0;fillColor=#000000;" parent="U7-Bne6vPr2ETIkwVhDn-198" vertex="1">
          <mxGeometry width="1.3333333333333333" height="1.6000000000000003" as="geometry" />
        </mxCell>
        <mxCell id="U7-Bne6vPr2ETIkwVhDn-200" value="" style="ellipse;whiteSpace=wrap;html=1;rotation=0;fillColor=#000000;" parent="U7-Bne6vPr2ETIkwVhDn-198" vertex="1">
          <mxGeometry y="4.000000000000001" width="1.3333333333333333" height="1.6000000000000003" as="geometry" />
        </mxCell>
        <mxCell id="U7-Bne6vPr2ETIkwVhDn-201" value="" style="ellipse;whiteSpace=wrap;html=1;rotation=0;fillColor=#000000;" parent="U7-Bne6vPr2ETIkwVhDn-198" vertex="1">
          <mxGeometry y="8.000000000000002" width="1.3333333333333333" height="1.6000000000000003" as="geometry" />
        </mxCell>
        <mxCell id="U7-Bne6vPr2ETIkwVhDn-209" value="" style="group" parent="1" vertex="1" connectable="0">
          <mxGeometry x="827" y="210" width="20" height="20" as="geometry" />
        </mxCell>
        <mxCell id="U7-Bne6vPr2ETIkwVhDn-210" value="" style="rounded=0;whiteSpace=wrap;html=1;" parent="U7-Bne6vPr2ETIkwVhDn-209" vertex="1">
          <mxGeometry width="20" height="20" as="geometry" />
        </mxCell>
        <mxCell id="U7-Bne6vPr2ETIkwVhDn-211" value="" style="group" parent="U7-Bne6vPr2ETIkwVhDn-209" vertex="1" connectable="0">
          <mxGeometry x="9.333333333333332" y="5.2" width="1.3333333333333333" height="9.600000000000001" as="geometry" />
        </mxCell>
        <mxCell id="U7-Bne6vPr2ETIkwVhDn-212" value="" style="ellipse;whiteSpace=wrap;html=1;rotation=0;fillColor=#000000;" parent="U7-Bne6vPr2ETIkwVhDn-211" vertex="1">
          <mxGeometry width="1.3333333333333333" height="1.6000000000000003" as="geometry" />
        </mxCell>
        <mxCell id="U7-Bne6vPr2ETIkwVhDn-213" value="" style="ellipse;whiteSpace=wrap;html=1;rotation=0;fillColor=#000000;" parent="U7-Bne6vPr2ETIkwVhDn-211" vertex="1">
          <mxGeometry y="4.000000000000001" width="1.3333333333333333" height="1.6000000000000003" as="geometry" />
        </mxCell>
        <mxCell id="U7-Bne6vPr2ETIkwVhDn-214" value="" style="ellipse;whiteSpace=wrap;html=1;rotation=0;fillColor=#000000;" parent="U7-Bne6vPr2ETIkwVhDn-211" vertex="1">
          <mxGeometry y="8.000000000000002" width="1.3333333333333333" height="1.6000000000000003" as="geometry" />
        </mxCell>
        <mxCell id="U7-Bne6vPr2ETIkwVhDn-215" value="" style="group" parent="1" vertex="1" connectable="0">
          <mxGeometry x="827" y="240" width="20" height="20" as="geometry" />
        </mxCell>
        <mxCell id="U7-Bne6vPr2ETIkwVhDn-216" value="" style="rounded=0;whiteSpace=wrap;html=1;" parent="U7-Bne6vPr2ETIkwVhDn-215" vertex="1">
          <mxGeometry width="20" height="20" as="geometry" />
        </mxCell>
        <mxCell id="U7-Bne6vPr2ETIkwVhDn-217" value="" style="group" parent="U7-Bne6vPr2ETIkwVhDn-215" vertex="1" connectable="0">
          <mxGeometry x="9.333333333333332" y="5.2" width="1.3333333333333333" height="9.600000000000001" as="geometry" />
        </mxCell>
        <mxCell id="U7-Bne6vPr2ETIkwVhDn-218" value="" style="ellipse;whiteSpace=wrap;html=1;rotation=0;fillColor=#000000;" parent="U7-Bne6vPr2ETIkwVhDn-217" vertex="1">
          <mxGeometry width="1.3333333333333333" height="1.6000000000000003" as="geometry" />
        </mxCell>
        <mxCell id="U7-Bne6vPr2ETIkwVhDn-219" value="" style="ellipse;whiteSpace=wrap;html=1;rotation=0;fillColor=#000000;" parent="U7-Bne6vPr2ETIkwVhDn-217" vertex="1">
          <mxGeometry y="4.000000000000001" width="1.3333333333333333" height="1.6000000000000003" as="geometry" />
        </mxCell>
        <mxCell id="U7-Bne6vPr2ETIkwVhDn-220" value="" style="ellipse;whiteSpace=wrap;html=1;rotation=0;fillColor=#000000;" parent="U7-Bne6vPr2ETIkwVhDn-217" vertex="1">
          <mxGeometry y="8.000000000000002" width="1.3333333333333333" height="1.6000000000000003" as="geometry" />
        </mxCell>
        <mxCell id="U7-Bne6vPr2ETIkwVhDn-228" value="" style="group" parent="1" vertex="1" connectable="0">
          <mxGeometry x="827" y="270" width="20" height="20" as="geometry" />
        </mxCell>
        <mxCell id="U7-Bne6vPr2ETIkwVhDn-229" value="" style="rounded=0;whiteSpace=wrap;html=1;" parent="U7-Bne6vPr2ETIkwVhDn-228" vertex="1">
          <mxGeometry width="20" height="20" as="geometry" />
        </mxCell>
        <mxCell id="U7-Bne6vPr2ETIkwVhDn-230" value="" style="group" parent="U7-Bne6vPr2ETIkwVhDn-228" vertex="1" connectable="0">
          <mxGeometry x="9.333333333333332" y="5.2" width="1.3333333333333333" height="9.600000000000001" as="geometry" />
        </mxCell>
        <mxCell id="U7-Bne6vPr2ETIkwVhDn-231" value="" style="ellipse;whiteSpace=wrap;html=1;rotation=0;fillColor=#000000;" parent="U7-Bne6vPr2ETIkwVhDn-230" vertex="1">
          <mxGeometry width="1.3333333333333333" height="1.6000000000000003" as="geometry" />
        </mxCell>
        <mxCell id="U7-Bne6vPr2ETIkwVhDn-232" value="" style="ellipse;whiteSpace=wrap;html=1;rotation=0;fillColor=#000000;" parent="U7-Bne6vPr2ETIkwVhDn-230" vertex="1">
          <mxGeometry y="4.000000000000001" width="1.3333333333333333" height="1.6000000000000003" as="geometry" />
        </mxCell>
        <mxCell id="U7-Bne6vPr2ETIkwVhDn-233" value="" style="ellipse;whiteSpace=wrap;html=1;rotation=0;fillColor=#000000;" parent="U7-Bne6vPr2ETIkwVhDn-230" vertex="1">
          <mxGeometry y="8.000000000000002" width="1.3333333333333333" height="1.6000000000000003" as="geometry" />
        </mxCell>
        <mxCell id="U7-Bne6vPr2ETIkwVhDn-234" value="" style="group" parent="1" vertex="1" connectable="0">
          <mxGeometry x="827" y="300" width="20" height="20" as="geometry" />
        </mxCell>
        <mxCell id="U7-Bne6vPr2ETIkwVhDn-235" value="" style="rounded=0;whiteSpace=wrap;html=1;" parent="U7-Bne6vPr2ETIkwVhDn-234" vertex="1">
          <mxGeometry width="20" height="20" as="geometry" />
        </mxCell>
        <mxCell id="U7-Bne6vPr2ETIkwVhDn-236" value="" style="group" parent="U7-Bne6vPr2ETIkwVhDn-234" vertex="1" connectable="0">
          <mxGeometry x="9.333333333333332" y="5.2" width="1.3333333333333333" height="9.600000000000001" as="geometry" />
        </mxCell>
        <mxCell id="U7-Bne6vPr2ETIkwVhDn-237" value="" style="ellipse;whiteSpace=wrap;html=1;rotation=0;fillColor=#000000;" parent="U7-Bne6vPr2ETIkwVhDn-236" vertex="1">
          <mxGeometry width="1.3333333333333333" height="1.6000000000000003" as="geometry" />
        </mxCell>
        <mxCell id="U7-Bne6vPr2ETIkwVhDn-238" value="" style="ellipse;whiteSpace=wrap;html=1;rotation=0;fillColor=#000000;" parent="U7-Bne6vPr2ETIkwVhDn-236" vertex="1">
          <mxGeometry y="4.000000000000001" width="1.3333333333333333" height="1.6000000000000003" as="geometry" />
        </mxCell>
        <mxCell id="U7-Bne6vPr2ETIkwVhDn-239" value="" style="ellipse;whiteSpace=wrap;html=1;rotation=0;fillColor=#000000;" parent="U7-Bne6vPr2ETIkwVhDn-236" vertex="1">
          <mxGeometry y="8.000000000000002" width="1.3333333333333333" height="1.6000000000000003" as="geometry" />
        </mxCell>
        <mxCell id="U7-Bne6vPr2ETIkwVhDn-241" value="" style="group" parent="1" vertex="1" connectable="0">
          <mxGeometry x="827" y="330" width="20" height="20" as="geometry" />
        </mxCell>
        <mxCell id="U7-Bne6vPr2ETIkwVhDn-242" value="" style="rounded=0;whiteSpace=wrap;html=1;" parent="U7-Bne6vPr2ETIkwVhDn-241" vertex="1">
          <mxGeometry width="20" height="20" as="geometry" />
        </mxCell>
        <mxCell id="U7-Bne6vPr2ETIkwVhDn-243" value="" style="group" parent="U7-Bne6vPr2ETIkwVhDn-241" vertex="1" connectable="0">
          <mxGeometry x="9.333333333333332" y="5.2" width="1.3333333333333333" height="9.600000000000001" as="geometry" />
        </mxCell>
        <mxCell id="U7-Bne6vPr2ETIkwVhDn-244" value="" style="ellipse;whiteSpace=wrap;html=1;rotation=0;fillColor=#000000;" parent="U7-Bne6vPr2ETIkwVhDn-243" vertex="1">
          <mxGeometry width="1.3333333333333333" height="1.6000000000000003" as="geometry" />
        </mxCell>
        <mxCell id="U7-Bne6vPr2ETIkwVhDn-245" value="" style="ellipse;whiteSpace=wrap;html=1;rotation=0;fillColor=#000000;" parent="U7-Bne6vPr2ETIkwVhDn-243" vertex="1">
          <mxGeometry y="4.000000000000001" width="1.3333333333333333" height="1.6000000000000003" as="geometry" />
        </mxCell>
        <mxCell id="U7-Bne6vPr2ETIkwVhDn-246" value="" style="ellipse;whiteSpace=wrap;html=1;rotation=0;fillColor=#000000;" parent="U7-Bne6vPr2ETIkwVhDn-243" vertex="1">
          <mxGeometry y="8.000000000000002" width="1.3333333333333333" height="1.6000000000000003" as="geometry" />
        </mxCell>
        <mxCell id="U7-Bne6vPr2ETIkwVhDn-247" value="" style="group" parent="1" vertex="1" connectable="0">
          <mxGeometry x="827" y="360" width="20" height="20" as="geometry" />
        </mxCell>
        <mxCell id="U7-Bne6vPr2ETIkwVhDn-248" value="" style="rounded=0;whiteSpace=wrap;html=1;" parent="U7-Bne6vPr2ETIkwVhDn-247" vertex="1">
          <mxGeometry width="20" height="20" as="geometry" />
        </mxCell>
        <mxCell id="U7-Bne6vPr2ETIkwVhDn-249" value="" style="group" parent="U7-Bne6vPr2ETIkwVhDn-247" vertex="1" connectable="0">
          <mxGeometry x="9.333333333333332" y="5.2" width="1.3333333333333333" height="9.600000000000001" as="geometry" />
        </mxCell>
        <mxCell id="U7-Bne6vPr2ETIkwVhDn-250" value="" style="ellipse;whiteSpace=wrap;html=1;rotation=0;fillColor=#000000;" parent="U7-Bne6vPr2ETIkwVhDn-249" vertex="1">
          <mxGeometry width="1.3333333333333333" height="1.6000000000000003" as="geometry" />
        </mxCell>
        <mxCell id="U7-Bne6vPr2ETIkwVhDn-251" value="" style="ellipse;whiteSpace=wrap;html=1;rotation=0;fillColor=#000000;" parent="U7-Bne6vPr2ETIkwVhDn-249" vertex="1">
          <mxGeometry y="4.000000000000001" width="1.3333333333333333" height="1.6000000000000003" as="geometry" />
        </mxCell>
        <mxCell id="U7-Bne6vPr2ETIkwVhDn-252" value="" style="ellipse;whiteSpace=wrap;html=1;rotation=0;fillColor=#000000;" parent="U7-Bne6vPr2ETIkwVhDn-249" vertex="1">
          <mxGeometry y="8.000000000000002" width="1.3333333333333333" height="1.6000000000000003" as="geometry" />
        </mxCell>
        <mxCell id="U7-Bne6vPr2ETIkwVhDn-253" value="" style="group" parent="1" vertex="1" connectable="0">
          <mxGeometry x="827" y="390" width="20" height="20" as="geometry" />
        </mxCell>
        <mxCell id="U7-Bne6vPr2ETIkwVhDn-254" value="" style="rounded=0;whiteSpace=wrap;html=1;" parent="U7-Bne6vPr2ETIkwVhDn-253" vertex="1">
          <mxGeometry width="20" height="20" as="geometry" />
        </mxCell>
        <mxCell id="U7-Bne6vPr2ETIkwVhDn-255" value="" style="group" parent="U7-Bne6vPr2ETIkwVhDn-253" vertex="1" connectable="0">
          <mxGeometry x="9.333333333333332" y="5.2" width="1.3333333333333333" height="9.600000000000001" as="geometry" />
        </mxCell>
        <mxCell id="U7-Bne6vPr2ETIkwVhDn-256" value="" style="ellipse;whiteSpace=wrap;html=1;rotation=0;fillColor=#000000;" parent="U7-Bne6vPr2ETIkwVhDn-255" vertex="1">
          <mxGeometry width="1.3333333333333333" height="1.6000000000000003" as="geometry" />
        </mxCell>
        <mxCell id="U7-Bne6vPr2ETIkwVhDn-257" value="" style="ellipse;whiteSpace=wrap;html=1;rotation=0;fillColor=#000000;" parent="U7-Bne6vPr2ETIkwVhDn-255" vertex="1">
          <mxGeometry y="4.000000000000001" width="1.3333333333333333" height="1.6000000000000003" as="geometry" />
        </mxCell>
        <mxCell id="U7-Bne6vPr2ETIkwVhDn-258" value="" style="ellipse;whiteSpace=wrap;html=1;rotation=0;fillColor=#000000;" parent="U7-Bne6vPr2ETIkwVhDn-255" vertex="1">
          <mxGeometry y="8.000000000000002" width="1.3333333333333333" height="1.6000000000000003" as="geometry" />
        </mxCell>
        <mxCell id="3JljF7qS6T27T1hBH-AD-3" value="" style="shape=callout;whiteSpace=wrap;html=1;perimeter=calloutPerimeter;flipV=0;flipH=1;container=0;direction=north;" vertex="1" parent="1">
          <mxGeometry x="250" y="560" width="80" height="90" as="geometry" />
        </mxCell>
        <mxCell id="3JljF7qS6T27T1hBH-AD-4" value="" style="html=1;verticalLabelPosition=bottom;align=center;labelBackgroundColor=#ffffff;verticalAlign=top;strokeWidth=2;strokeColor=#b85450;shadow=0;dashed=0;shape=mxgraph.ios7.icons.trashcan;fillColor=#f8cecc;" vertex="1" parent="1">
          <mxGeometry x="292.66" y="620" width="20" height="20" as="geometry" />
        </mxCell>
        <mxCell id="3JljF7qS6T27T1hBH-AD-5" value="" style="sketch=0;outlineConnect=0;fontColor=#232F3E;gradientColor=none;fillColor=#7AA116;strokeColor=none;dashed=0;verticalLabelPosition=bottom;verticalAlign=top;align=center;html=1;fontSize=12;fontStyle=0;aspect=fixed;pointerEvents=1;shape=mxgraph.aws4.iot_over_the_air_update;" vertex="1" parent="1">
          <mxGeometry x="285.33000000000004" y="571" width="34.67" height="28" as="geometry" />
        </mxCell>
        <mxCell id="3JljF7qS6T27T1hBH-AD-7" value="" style="shape=callout;whiteSpace=wrap;html=1;perimeter=calloutPerimeter;flipV=0;flipH=1;container=0;direction=north;" vertex="1" parent="1">
          <mxGeometry x="847" y="290" width="80" height="90" as="geometry" />
        </mxCell>
        <mxCell id="3JljF7qS6T27T1hBH-AD-8" value="" style="sketch=0;outlineConnect=0;fontColor=#232F3E;gradientColor=none;fillColor=#7AA116;strokeColor=none;dashed=0;verticalLabelPosition=bottom;verticalAlign=top;align=center;html=1;fontSize=12;fontStyle=0;aspect=fixed;pointerEvents=1;shape=mxgraph.aws4.iot_over_the_air_update;" vertex="1" parent="1">
          <mxGeometry x="885.33" y="300" width="34.67" height="28" as="geometry" />
        </mxCell>
        <mxCell id="3JljF7qS6T27T1hBH-AD-9" value="" style="html=1;verticalLabelPosition=bottom;align=center;labelBackgroundColor=#ffffff;verticalAlign=top;strokeWidth=2;strokeColor=#b85450;shadow=0;dashed=0;shape=mxgraph.ios7.icons.trashcan;fillColor=#f8cecc;" vertex="1" parent="1">
          <mxGeometry x="892.6600000000001" y="345" width="20" height="20" as="geometry" />
        </mxCell>
        <mxCell id="8Pp0T-ooOlDbA1QI-Wjk-1" value="" style="rounded=1;whiteSpace=wrap;html=1;fillColor=#dae8fc;strokeColor=#6c8ebf;gradientColor=#FFFAFC;" vertex="1" parent="1">
          <mxGeometry x="-270" y="-10" width="450" height="800" as="geometry" />
        </mxCell>
        <mxCell id="8Pp0T-ooOlDbA1QI-Wjk-2" value="Listar Cliente" style="text;strokeColor=none;fillColor=none;html=1;fontSize=24;fontStyle=1;verticalAlign=middle;align=center;" vertex="1" parent="1">
          <mxGeometry x="-95" y="60" width="100" height="40" as="geometry" />
        </mxCell>
        <mxCell id="8Pp0T-ooOlDbA1QI-Wjk-3" value="Buscar Cliente..." style="rounded=1;whiteSpace=wrap;html=1;" vertex="1" parent="1">
          <mxGeometry x="-220" y="160" width="290" height="40" as="geometry" />
        </mxCell>
        <mxCell id="8Pp0T-ooOlDbA1QI-Wjk-4" value="" style="rounded=1;whiteSpace=wrap;html=1;" vertex="1" parent="1">
          <mxGeometry x="80" y="160" width="50" height="40" as="geometry" />
        </mxCell>
        <mxCell id="8Pp0T-ooOlDbA1QI-Wjk-5" value="" style="sketch=0;outlineConnect=0;fontColor=#232F3E;gradientColor=none;fillColor=#232F3D;strokeColor=none;dashed=0;verticalLabelPosition=bottom;verticalAlign=top;align=center;html=1;fontSize=12;fontStyle=0;aspect=fixed;pointerEvents=1;shape=mxgraph.aws4.magnifying_glass_2;" vertex="1" parent="1">
          <mxGeometry x="90" y="165" width="30" height="30" as="geometry" />
        </mxCell>
        <mxCell id="8Pp0T-ooOlDbA1QI-Wjk-6" value="Cliente" style="text;html=1;align=center;verticalAlign=middle;whiteSpace=wrap;rounded=0;" vertex="1" parent="1">
          <mxGeometry x="-180" y="240" width="60" height="30" as="geometry" />
        </mxCell>
        <mxCell id="8Pp0T-ooOlDbA1QI-Wjk-7" value="CPF" style="text;html=1;align=center;verticalAlign=middle;whiteSpace=wrap;rounded=0;" vertex="1" parent="1">
          <mxGeometry x="-75" y="240" width="60" height="30" as="geometry" />
        </mxCell>
        <mxCell id="8Pp0T-ooOlDbA1QI-Wjk-8" value="Telefone" style="text;html=1;align=center;verticalAlign=middle;whiteSpace=wrap;rounded=0;" vertex="1" parent="1">
          <mxGeometry x="50" y="240" width="60" height="30" as="geometry" />
        </mxCell>
        <mxCell id="8Pp0T-ooOlDbA1QI-Wjk-9" style="edgeStyle=orthogonalEdgeStyle;rounded=0;orthogonalLoop=1;jettySize=auto;html=1;exitX=1;exitY=0.5;exitDx=0;exitDy=0;entryX=1;entryY=0.75;entryDx=0;entryDy=0;" edge="1" parent="1" source="8Pp0T-ooOlDbA1QI-Wjk-2" target="8Pp0T-ooOlDbA1QI-Wjk-2">
          <mxGeometry relative="1" as="geometry" />
        </mxCell>
        <mxCell id="8Pp0T-ooOlDbA1QI-Wjk-10" value="" style="shape=table;startSize=0;container=1;collapsible=0;childLayout=tableLayout;fontSize=16;" vertex="1" parent="1">
          <mxGeometry x="-200" y="270" width="340" height="467" as="geometry" />
        </mxCell>
        <mxCell id="8Pp0T-ooOlDbA1QI-Wjk-11" value="" style="shape=tableRow;horizontal=0;startSize=0;swimlaneHead=0;swimlaneBody=0;strokeColor=inherit;top=0;left=0;bottom=0;right=0;collapsible=0;dropTarget=0;fillColor=none;points=[[0,0.5],[1,0.5]];portConstraint=eastwest;fontSize=16;" vertex="1" parent="8Pp0T-ooOlDbA1QI-Wjk-10">
          <mxGeometry width="340" height="43" as="geometry" />
        </mxCell>
        <mxCell id="8Pp0T-ooOlDbA1QI-Wjk-12" value="" style="shape=partialRectangle;html=1;whiteSpace=wrap;connectable=0;strokeColor=inherit;overflow=hidden;fillColor=none;top=0;left=0;bottom=0;right=0;pointerEvents=1;fontSize=16;" vertex="1" parent="8Pp0T-ooOlDbA1QI-Wjk-11">
          <mxGeometry width="113" height="43" as="geometry">
            <mxRectangle width="113" height="43" as="alternateBounds" />
          </mxGeometry>
        </mxCell>
        <mxCell id="8Pp0T-ooOlDbA1QI-Wjk-13" value="" style="shape=partialRectangle;html=1;whiteSpace=wrap;connectable=0;strokeColor=inherit;overflow=hidden;fillColor=none;top=0;left=0;bottom=0;right=0;pointerEvents=1;fontSize=16;" vertex="1" parent="8Pp0T-ooOlDbA1QI-Wjk-11">
          <mxGeometry x="113" width="114" height="43" as="geometry">
            <mxRectangle width="114" height="43" as="alternateBounds" />
          </mxGeometry>
        </mxCell>
        <mxCell id="8Pp0T-ooOlDbA1QI-Wjk-14" value="" style="shape=partialRectangle;html=1;whiteSpace=wrap;connectable=0;strokeColor=inherit;overflow=hidden;fillColor=none;top=0;left=0;bottom=0;right=0;pointerEvents=1;fontSize=16;" vertex="1" parent="8Pp0T-ooOlDbA1QI-Wjk-11">
          <mxGeometry x="227" width="113" height="43" as="geometry">
            <mxRectangle width="113" height="43" as="alternateBounds" />
          </mxGeometry>
        </mxCell>
        <mxCell id="8Pp0T-ooOlDbA1QI-Wjk-15" value="" style="shape=tableRow;horizontal=0;startSize=0;swimlaneHead=0;swimlaneBody=0;strokeColor=inherit;top=0;left=0;bottom=0;right=0;collapsible=0;dropTarget=0;fillColor=none;points=[[0,0.5],[1,0.5]];portConstraint=eastwest;fontSize=16;" vertex="1" parent="8Pp0T-ooOlDbA1QI-Wjk-10">
          <mxGeometry y="43" width="340" height="42" as="geometry" />
        </mxCell>
        <mxCell id="8Pp0T-ooOlDbA1QI-Wjk-16" value="" style="shape=partialRectangle;html=1;whiteSpace=wrap;connectable=0;strokeColor=inherit;overflow=hidden;fillColor=none;top=0;left=0;bottom=0;right=0;pointerEvents=1;fontSize=16;" vertex="1" parent="8Pp0T-ooOlDbA1QI-Wjk-15">
          <mxGeometry width="113" height="42" as="geometry">
            <mxRectangle width="113" height="42" as="alternateBounds" />
          </mxGeometry>
        </mxCell>
        <mxCell id="8Pp0T-ooOlDbA1QI-Wjk-17" value="" style="shape=partialRectangle;html=1;whiteSpace=wrap;connectable=0;strokeColor=inherit;overflow=hidden;fillColor=none;top=0;left=0;bottom=0;right=0;pointerEvents=1;fontSize=16;" vertex="1" parent="8Pp0T-ooOlDbA1QI-Wjk-15">
          <mxGeometry x="113" width="114" height="42" as="geometry">
            <mxRectangle width="114" height="42" as="alternateBounds" />
          </mxGeometry>
        </mxCell>
        <mxCell id="8Pp0T-ooOlDbA1QI-Wjk-18" value="" style="shape=partialRectangle;html=1;whiteSpace=wrap;connectable=0;strokeColor=inherit;overflow=hidden;fillColor=none;top=0;left=0;bottom=0;right=0;pointerEvents=1;fontSize=16;" vertex="1" parent="8Pp0T-ooOlDbA1QI-Wjk-15">
          <mxGeometry x="227" width="113" height="42" as="geometry">
            <mxRectangle width="113" height="42" as="alternateBounds" />
          </mxGeometry>
        </mxCell>
        <mxCell id="8Pp0T-ooOlDbA1QI-Wjk-19" value="" style="shape=tableRow;horizontal=0;startSize=0;swimlaneHead=0;swimlaneBody=0;strokeColor=inherit;top=0;left=0;bottom=0;right=0;collapsible=0;dropTarget=0;fillColor=none;points=[[0,0.5],[1,0.5]];portConstraint=eastwest;fontSize=16;" vertex="1" parent="8Pp0T-ooOlDbA1QI-Wjk-10">
          <mxGeometry y="85" width="340" height="42" as="geometry" />
        </mxCell>
        <mxCell id="8Pp0T-ooOlDbA1QI-Wjk-20" value="" style="shape=partialRectangle;html=1;whiteSpace=wrap;connectable=0;strokeColor=inherit;overflow=hidden;fillColor=none;top=0;left=0;bottom=0;right=0;pointerEvents=1;fontSize=16;" vertex="1" parent="8Pp0T-ooOlDbA1QI-Wjk-19">
          <mxGeometry width="113" height="42" as="geometry">
            <mxRectangle width="113" height="42" as="alternateBounds" />
          </mxGeometry>
        </mxCell>
        <mxCell id="8Pp0T-ooOlDbA1QI-Wjk-21" value="" style="shape=partialRectangle;html=1;whiteSpace=wrap;connectable=0;strokeColor=inherit;overflow=hidden;fillColor=none;top=0;left=0;bottom=0;right=0;pointerEvents=1;fontSize=16;" vertex="1" parent="8Pp0T-ooOlDbA1QI-Wjk-19">
          <mxGeometry x="113" width="114" height="42" as="geometry">
            <mxRectangle width="114" height="42" as="alternateBounds" />
          </mxGeometry>
        </mxCell>
        <mxCell id="8Pp0T-ooOlDbA1QI-Wjk-22" value="" style="shape=partialRectangle;html=1;whiteSpace=wrap;connectable=0;strokeColor=inherit;overflow=hidden;fillColor=none;top=0;left=0;bottom=0;right=0;pointerEvents=1;fontSize=16;" vertex="1" parent="8Pp0T-ooOlDbA1QI-Wjk-19">
          <mxGeometry x="227" width="113" height="42" as="geometry">
            <mxRectangle width="113" height="42" as="alternateBounds" />
          </mxGeometry>
        </mxCell>
        <mxCell id="8Pp0T-ooOlDbA1QI-Wjk-23" value="" style="shape=tableRow;horizontal=0;startSize=0;swimlaneHead=0;swimlaneBody=0;strokeColor=inherit;top=0;left=0;bottom=0;right=0;collapsible=0;dropTarget=0;fillColor=none;points=[[0,0.5],[1,0.5]];portConstraint=eastwest;fontSize=16;" vertex="1" parent="8Pp0T-ooOlDbA1QI-Wjk-10">
          <mxGeometry y="127" width="340" height="43" as="geometry" />
        </mxCell>
        <mxCell id="8Pp0T-ooOlDbA1QI-Wjk-24" value="" style="shape=partialRectangle;html=1;whiteSpace=wrap;connectable=0;strokeColor=inherit;overflow=hidden;fillColor=none;top=0;left=0;bottom=0;right=0;pointerEvents=1;fontSize=16;" vertex="1" parent="8Pp0T-ooOlDbA1QI-Wjk-23">
          <mxGeometry width="113" height="43" as="geometry">
            <mxRectangle width="113" height="43" as="alternateBounds" />
          </mxGeometry>
        </mxCell>
        <mxCell id="8Pp0T-ooOlDbA1QI-Wjk-25" value="" style="shape=partialRectangle;html=1;whiteSpace=wrap;connectable=0;strokeColor=inherit;overflow=hidden;fillColor=none;top=0;left=0;bottom=0;right=0;pointerEvents=1;fontSize=16;" vertex="1" parent="8Pp0T-ooOlDbA1QI-Wjk-23">
          <mxGeometry x="113" width="114" height="43" as="geometry">
            <mxRectangle width="114" height="43" as="alternateBounds" />
          </mxGeometry>
        </mxCell>
        <mxCell id="8Pp0T-ooOlDbA1QI-Wjk-26" value="" style="shape=partialRectangle;html=1;whiteSpace=wrap;connectable=0;strokeColor=inherit;overflow=hidden;fillColor=none;top=0;left=0;bottom=0;right=0;pointerEvents=1;fontSize=16;" vertex="1" parent="8Pp0T-ooOlDbA1QI-Wjk-23">
          <mxGeometry x="227" width="113" height="43" as="geometry">
            <mxRectangle width="113" height="43" as="alternateBounds" />
          </mxGeometry>
        </mxCell>
        <mxCell id="8Pp0T-ooOlDbA1QI-Wjk-27" value="" style="shape=tableRow;horizontal=0;startSize=0;swimlaneHead=0;swimlaneBody=0;strokeColor=inherit;top=0;left=0;bottom=0;right=0;collapsible=0;dropTarget=0;fillColor=none;points=[[0,0.5],[1,0.5]];portConstraint=eastwest;fontSize=16;" vertex="1" parent="8Pp0T-ooOlDbA1QI-Wjk-10">
          <mxGeometry y="170" width="340" height="42" as="geometry" />
        </mxCell>
        <mxCell id="8Pp0T-ooOlDbA1QI-Wjk-28" value="" style="shape=partialRectangle;html=1;whiteSpace=wrap;connectable=0;strokeColor=inherit;overflow=hidden;fillColor=none;top=0;left=0;bottom=0;right=0;pointerEvents=1;fontSize=16;" vertex="1" parent="8Pp0T-ooOlDbA1QI-Wjk-27">
          <mxGeometry width="113" height="42" as="geometry">
            <mxRectangle width="113" height="42" as="alternateBounds" />
          </mxGeometry>
        </mxCell>
        <mxCell id="8Pp0T-ooOlDbA1QI-Wjk-29" value="" style="shape=partialRectangle;html=1;whiteSpace=wrap;connectable=0;strokeColor=inherit;overflow=hidden;fillColor=none;top=0;left=0;bottom=0;right=0;pointerEvents=1;fontSize=16;" vertex="1" parent="8Pp0T-ooOlDbA1QI-Wjk-27">
          <mxGeometry x="113" width="114" height="42" as="geometry">
            <mxRectangle width="114" height="42" as="alternateBounds" />
          </mxGeometry>
        </mxCell>
        <mxCell id="8Pp0T-ooOlDbA1QI-Wjk-30" value="" style="shape=partialRectangle;html=1;whiteSpace=wrap;connectable=0;strokeColor=inherit;overflow=hidden;fillColor=none;top=0;left=0;bottom=0;right=0;pointerEvents=1;fontSize=16;" vertex="1" parent="8Pp0T-ooOlDbA1QI-Wjk-27">
          <mxGeometry x="227" width="113" height="42" as="geometry">
            <mxRectangle width="113" height="42" as="alternateBounds" />
          </mxGeometry>
        </mxCell>
        <mxCell id="8Pp0T-ooOlDbA1QI-Wjk-31" value="" style="shape=tableRow;horizontal=0;startSize=0;swimlaneHead=0;swimlaneBody=0;strokeColor=inherit;top=0;left=0;bottom=0;right=0;collapsible=0;dropTarget=0;fillColor=none;points=[[0,0.5],[1,0.5]];portConstraint=eastwest;fontSize=16;" vertex="1" parent="8Pp0T-ooOlDbA1QI-Wjk-10">
          <mxGeometry y="212" width="340" height="43" as="geometry" />
        </mxCell>
        <mxCell id="8Pp0T-ooOlDbA1QI-Wjk-32" value="" style="shape=partialRectangle;html=1;whiteSpace=wrap;connectable=0;strokeColor=inherit;overflow=hidden;fillColor=none;top=0;left=0;bottom=0;right=0;pointerEvents=1;fontSize=16;" vertex="1" parent="8Pp0T-ooOlDbA1QI-Wjk-31">
          <mxGeometry width="113" height="43" as="geometry">
            <mxRectangle width="113" height="43" as="alternateBounds" />
          </mxGeometry>
        </mxCell>
        <mxCell id="8Pp0T-ooOlDbA1QI-Wjk-33" value="" style="shape=partialRectangle;html=1;whiteSpace=wrap;connectable=0;strokeColor=inherit;overflow=hidden;fillColor=none;top=0;left=0;bottom=0;right=0;pointerEvents=1;fontSize=16;" vertex="1" parent="8Pp0T-ooOlDbA1QI-Wjk-31">
          <mxGeometry x="113" width="114" height="43" as="geometry">
            <mxRectangle width="114" height="43" as="alternateBounds" />
          </mxGeometry>
        </mxCell>
        <mxCell id="8Pp0T-ooOlDbA1QI-Wjk-34" value="" style="shape=partialRectangle;html=1;whiteSpace=wrap;connectable=0;strokeColor=inherit;overflow=hidden;fillColor=none;top=0;left=0;bottom=0;right=0;pointerEvents=1;fontSize=16;" vertex="1" parent="8Pp0T-ooOlDbA1QI-Wjk-31">
          <mxGeometry x="227" width="113" height="43" as="geometry">
            <mxRectangle width="113" height="43" as="alternateBounds" />
          </mxGeometry>
        </mxCell>
        <mxCell id="8Pp0T-ooOlDbA1QI-Wjk-35" value="" style="shape=tableRow;horizontal=0;startSize=0;swimlaneHead=0;swimlaneBody=0;strokeColor=inherit;top=0;left=0;bottom=0;right=0;collapsible=0;dropTarget=0;fillColor=none;points=[[0,0.5],[1,0.5]];portConstraint=eastwest;fontSize=16;" vertex="1" parent="8Pp0T-ooOlDbA1QI-Wjk-10">
          <mxGeometry y="255" width="340" height="42" as="geometry" />
        </mxCell>
        <mxCell id="8Pp0T-ooOlDbA1QI-Wjk-36" value="" style="shape=partialRectangle;html=1;whiteSpace=wrap;connectable=0;strokeColor=inherit;overflow=hidden;fillColor=none;top=0;left=0;bottom=0;right=0;pointerEvents=1;fontSize=16;" vertex="1" parent="8Pp0T-ooOlDbA1QI-Wjk-35">
          <mxGeometry width="113" height="42" as="geometry">
            <mxRectangle width="113" height="42" as="alternateBounds" />
          </mxGeometry>
        </mxCell>
        <mxCell id="8Pp0T-ooOlDbA1QI-Wjk-37" value="" style="shape=partialRectangle;html=1;whiteSpace=wrap;connectable=0;strokeColor=inherit;overflow=hidden;fillColor=none;top=0;left=0;bottom=0;right=0;pointerEvents=1;fontSize=16;" vertex="1" parent="8Pp0T-ooOlDbA1QI-Wjk-35">
          <mxGeometry x="113" width="114" height="42" as="geometry">
            <mxRectangle width="114" height="42" as="alternateBounds" />
          </mxGeometry>
        </mxCell>
        <mxCell id="8Pp0T-ooOlDbA1QI-Wjk-38" value="" style="shape=partialRectangle;html=1;whiteSpace=wrap;connectable=0;strokeColor=inherit;overflow=hidden;fillColor=none;top=0;left=0;bottom=0;right=0;pointerEvents=1;fontSize=16;" vertex="1" parent="8Pp0T-ooOlDbA1QI-Wjk-35">
          <mxGeometry x="227" width="113" height="42" as="geometry">
            <mxRectangle width="113" height="42" as="alternateBounds" />
          </mxGeometry>
        </mxCell>
        <mxCell id="8Pp0T-ooOlDbA1QI-Wjk-39" value="" style="shape=tableRow;horizontal=0;startSize=0;swimlaneHead=0;swimlaneBody=0;strokeColor=inherit;top=0;left=0;bottom=0;right=0;collapsible=0;dropTarget=0;fillColor=none;points=[[0,0.5],[1,0.5]];portConstraint=eastwest;fontSize=16;" vertex="1" parent="8Pp0T-ooOlDbA1QI-Wjk-10">
          <mxGeometry y="297" width="340" height="43" as="geometry" />
        </mxCell>
        <mxCell id="8Pp0T-ooOlDbA1QI-Wjk-40" value="" style="shape=partialRectangle;html=1;whiteSpace=wrap;connectable=0;strokeColor=inherit;overflow=hidden;fillColor=none;top=0;left=0;bottom=0;right=0;pointerEvents=1;fontSize=16;" vertex="1" parent="8Pp0T-ooOlDbA1QI-Wjk-39">
          <mxGeometry width="113" height="43" as="geometry">
            <mxRectangle width="113" height="43" as="alternateBounds" />
          </mxGeometry>
        </mxCell>
        <mxCell id="8Pp0T-ooOlDbA1QI-Wjk-41" value="" style="shape=partialRectangle;html=1;whiteSpace=wrap;connectable=0;strokeColor=inherit;overflow=hidden;fillColor=none;top=0;left=0;bottom=0;right=0;pointerEvents=1;fontSize=16;" vertex="1" parent="8Pp0T-ooOlDbA1QI-Wjk-39">
          <mxGeometry x="113" width="114" height="43" as="geometry">
            <mxRectangle width="114" height="43" as="alternateBounds" />
          </mxGeometry>
        </mxCell>
        <mxCell id="8Pp0T-ooOlDbA1QI-Wjk-42" value="" style="shape=partialRectangle;html=1;whiteSpace=wrap;connectable=0;strokeColor=inherit;overflow=hidden;fillColor=none;top=0;left=0;bottom=0;right=0;pointerEvents=1;fontSize=16;" vertex="1" parent="8Pp0T-ooOlDbA1QI-Wjk-39">
          <mxGeometry x="227" width="113" height="43" as="geometry">
            <mxRectangle width="113" height="43" as="alternateBounds" />
          </mxGeometry>
        </mxCell>
        <mxCell id="8Pp0T-ooOlDbA1QI-Wjk-43" value="" style="shape=tableRow;horizontal=0;startSize=0;swimlaneHead=0;swimlaneBody=0;strokeColor=inherit;top=0;left=0;bottom=0;right=0;collapsible=0;dropTarget=0;fillColor=none;points=[[0,0.5],[1,0.5]];portConstraint=eastwest;fontSize=16;" vertex="1" parent="8Pp0T-ooOlDbA1QI-Wjk-10">
          <mxGeometry y="340" width="340" height="42" as="geometry" />
        </mxCell>
        <mxCell id="8Pp0T-ooOlDbA1QI-Wjk-44" value="" style="shape=partialRectangle;html=1;whiteSpace=wrap;connectable=0;strokeColor=inherit;overflow=hidden;fillColor=none;top=0;left=0;bottom=0;right=0;pointerEvents=1;fontSize=16;" vertex="1" parent="8Pp0T-ooOlDbA1QI-Wjk-43">
          <mxGeometry width="113" height="42" as="geometry">
            <mxRectangle width="113" height="42" as="alternateBounds" />
          </mxGeometry>
        </mxCell>
        <mxCell id="8Pp0T-ooOlDbA1QI-Wjk-45" value="" style="shape=partialRectangle;html=1;whiteSpace=wrap;connectable=0;strokeColor=inherit;overflow=hidden;fillColor=none;top=0;left=0;bottom=0;right=0;pointerEvents=1;fontSize=16;" vertex="1" parent="8Pp0T-ooOlDbA1QI-Wjk-43">
          <mxGeometry x="113" width="114" height="42" as="geometry">
            <mxRectangle width="114" height="42" as="alternateBounds" />
          </mxGeometry>
        </mxCell>
        <mxCell id="8Pp0T-ooOlDbA1QI-Wjk-46" value="" style="shape=partialRectangle;html=1;whiteSpace=wrap;connectable=0;strokeColor=inherit;overflow=hidden;fillColor=none;top=0;left=0;bottom=0;right=0;pointerEvents=1;fontSize=16;" vertex="1" parent="8Pp0T-ooOlDbA1QI-Wjk-43">
          <mxGeometry x="227" width="113" height="42" as="geometry">
            <mxRectangle width="113" height="42" as="alternateBounds" />
          </mxGeometry>
        </mxCell>
        <mxCell id="8Pp0T-ooOlDbA1QI-Wjk-47" value="" style="shape=tableRow;horizontal=0;startSize=0;swimlaneHead=0;swimlaneBody=0;strokeColor=inherit;top=0;left=0;bottom=0;right=0;collapsible=0;dropTarget=0;fillColor=none;points=[[0,0.5],[1,0.5]];portConstraint=eastwest;fontSize=16;" vertex="1" parent="8Pp0T-ooOlDbA1QI-Wjk-10">
          <mxGeometry y="382" width="340" height="43" as="geometry" />
        </mxCell>
        <mxCell id="8Pp0T-ooOlDbA1QI-Wjk-48" value="" style="shape=partialRectangle;html=1;whiteSpace=wrap;connectable=0;strokeColor=inherit;overflow=hidden;fillColor=none;top=0;left=0;bottom=0;right=0;pointerEvents=1;fontSize=16;" vertex="1" parent="8Pp0T-ooOlDbA1QI-Wjk-47">
          <mxGeometry width="113" height="43" as="geometry">
            <mxRectangle width="113" height="43" as="alternateBounds" />
          </mxGeometry>
        </mxCell>
        <mxCell id="8Pp0T-ooOlDbA1QI-Wjk-49" value="" style="shape=partialRectangle;html=1;whiteSpace=wrap;connectable=0;strokeColor=inherit;overflow=hidden;fillColor=none;top=0;left=0;bottom=0;right=0;pointerEvents=1;fontSize=16;" vertex="1" parent="8Pp0T-ooOlDbA1QI-Wjk-47">
          <mxGeometry x="113" width="114" height="43" as="geometry">
            <mxRectangle width="114" height="43" as="alternateBounds" />
          </mxGeometry>
        </mxCell>
        <mxCell id="8Pp0T-ooOlDbA1QI-Wjk-50" value="" style="shape=partialRectangle;html=1;whiteSpace=wrap;connectable=0;strokeColor=inherit;overflow=hidden;fillColor=none;top=0;left=0;bottom=0;right=0;pointerEvents=1;fontSize=16;" vertex="1" parent="8Pp0T-ooOlDbA1QI-Wjk-47">
          <mxGeometry x="227" width="113" height="43" as="geometry">
            <mxRectangle width="113" height="43" as="alternateBounds" />
          </mxGeometry>
        </mxCell>
        <mxCell id="8Pp0T-ooOlDbA1QI-Wjk-51" value="" style="shape=tableRow;horizontal=0;startSize=0;swimlaneHead=0;swimlaneBody=0;strokeColor=inherit;top=0;left=0;bottom=0;right=0;collapsible=0;dropTarget=0;fillColor=none;points=[[0,0.5],[1,0.5]];portConstraint=eastwest;fontSize=16;" vertex="1" parent="8Pp0T-ooOlDbA1QI-Wjk-10">
          <mxGeometry y="425" width="340" height="42" as="geometry" />
        </mxCell>
        <mxCell id="8Pp0T-ooOlDbA1QI-Wjk-52" value="" style="shape=partialRectangle;html=1;whiteSpace=wrap;connectable=0;strokeColor=inherit;overflow=hidden;fillColor=none;top=0;left=0;bottom=0;right=0;pointerEvents=1;fontSize=16;" vertex="1" parent="8Pp0T-ooOlDbA1QI-Wjk-51">
          <mxGeometry width="113" height="42" as="geometry">
            <mxRectangle width="113" height="42" as="alternateBounds" />
          </mxGeometry>
        </mxCell>
        <mxCell id="8Pp0T-ooOlDbA1QI-Wjk-53" value="" style="shape=partialRectangle;html=1;whiteSpace=wrap;connectable=0;strokeColor=inherit;overflow=hidden;fillColor=none;top=0;left=0;bottom=0;right=0;pointerEvents=1;fontSize=16;" vertex="1" parent="8Pp0T-ooOlDbA1QI-Wjk-51">
          <mxGeometry x="113" width="114" height="42" as="geometry">
            <mxRectangle width="114" height="42" as="alternateBounds" />
          </mxGeometry>
        </mxCell>
        <mxCell id="8Pp0T-ooOlDbA1QI-Wjk-54" value="" style="shape=partialRectangle;html=1;whiteSpace=wrap;connectable=0;strokeColor=inherit;overflow=hidden;fillColor=none;top=0;left=0;bottom=0;right=0;pointerEvents=1;fontSize=16;" vertex="1" parent="8Pp0T-ooOlDbA1QI-Wjk-51">
          <mxGeometry x="227" width="113" height="42" as="geometry">
            <mxRectangle width="113" height="42" as="alternateBounds" />
          </mxGeometry>
        </mxCell>
        <mxCell id="8Pp0T-ooOlDbA1QI-Wjk-55" value="&lt;font style=&quot;font-size: 32px;&quot;&gt;+&lt;/font&gt;" style="rounded=1;whiteSpace=wrap;html=1;fillColor=#d5e8d4;strokeColor=#82b366;" vertex="1" parent="1">
          <mxGeometry x="110" y="750" width="30" height="30" as="geometry" />
        </mxCell>
        <mxCell id="8Pp0T-ooOlDbA1QI-Wjk-56" value="" style="group" vertex="1" connectable="0" parent="1">
          <mxGeometry x="-250" y="280" width="30" height="25" as="geometry" />
        </mxCell>
        <mxCell id="8Pp0T-ooOlDbA1QI-Wjk-57" value="" style="rounded=0;whiteSpace=wrap;html=1;" vertex="1" parent="8Pp0T-ooOlDbA1QI-Wjk-56">
          <mxGeometry width="30" height="25" as="geometry" />
        </mxCell>
        <mxCell id="8Pp0T-ooOlDbA1QI-Wjk-58" value="" style="group" vertex="1" connectable="0" parent="8Pp0T-ooOlDbA1QI-Wjk-56">
          <mxGeometry x="14" y="6.5" width="2" height="12" as="geometry" />
        </mxCell>
        <mxCell id="8Pp0T-ooOlDbA1QI-Wjk-59" value="" style="ellipse;whiteSpace=wrap;html=1;rotation=0;fillColor=#000000;" vertex="1" parent="8Pp0T-ooOlDbA1QI-Wjk-58">
          <mxGeometry width="2" height="2" as="geometry" />
        </mxCell>
        <mxCell id="8Pp0T-ooOlDbA1QI-Wjk-60" value="" style="ellipse;whiteSpace=wrap;html=1;rotation=0;fillColor=#000000;" vertex="1" parent="8Pp0T-ooOlDbA1QI-Wjk-58">
          <mxGeometry y="5" width="2" height="2" as="geometry" />
        </mxCell>
        <mxCell id="8Pp0T-ooOlDbA1QI-Wjk-61" value="" style="ellipse;whiteSpace=wrap;html=1;rotation=0;fillColor=#000000;" vertex="1" parent="8Pp0T-ooOlDbA1QI-Wjk-58">
          <mxGeometry y="10" width="2" height="2" as="geometry" />
        </mxCell>
        <mxCell id="8Pp0T-ooOlDbA1QI-Wjk-62" value="" style="group" vertex="1" connectable="0" parent="1">
          <mxGeometry x="-250" y="320" width="30" height="25" as="geometry" />
        </mxCell>
        <mxCell id="8Pp0T-ooOlDbA1QI-Wjk-63" value="" style="rounded=0;whiteSpace=wrap;html=1;" vertex="1" parent="8Pp0T-ooOlDbA1QI-Wjk-62">
          <mxGeometry width="30" height="25" as="geometry" />
        </mxCell>
        <mxCell id="8Pp0T-ooOlDbA1QI-Wjk-64" value="" style="group" vertex="1" connectable="0" parent="8Pp0T-ooOlDbA1QI-Wjk-62">
          <mxGeometry x="14" y="6.5" width="2" height="12" as="geometry" />
        </mxCell>
        <mxCell id="8Pp0T-ooOlDbA1QI-Wjk-65" value="" style="ellipse;whiteSpace=wrap;html=1;rotation=0;fillColor=#000000;" vertex="1" parent="8Pp0T-ooOlDbA1QI-Wjk-64">
          <mxGeometry width="2" height="2" as="geometry" />
        </mxCell>
        <mxCell id="8Pp0T-ooOlDbA1QI-Wjk-66" value="" style="ellipse;whiteSpace=wrap;html=1;rotation=0;fillColor=#000000;" vertex="1" parent="8Pp0T-ooOlDbA1QI-Wjk-64">
          <mxGeometry y="5" width="2" height="2" as="geometry" />
        </mxCell>
        <mxCell id="8Pp0T-ooOlDbA1QI-Wjk-67" value="" style="ellipse;whiteSpace=wrap;html=1;rotation=0;fillColor=#000000;" vertex="1" parent="8Pp0T-ooOlDbA1QI-Wjk-64">
          <mxGeometry y="10" width="2" height="2" as="geometry" />
        </mxCell>
        <mxCell id="8Pp0T-ooOlDbA1QI-Wjk-68" value="" style="group" vertex="1" connectable="0" parent="1">
          <mxGeometry x="-250" y="360" width="30" height="25" as="geometry" />
        </mxCell>
        <mxCell id="8Pp0T-ooOlDbA1QI-Wjk-69" value="" style="rounded=0;whiteSpace=wrap;html=1;" vertex="1" parent="8Pp0T-ooOlDbA1QI-Wjk-68">
          <mxGeometry width="30" height="25" as="geometry" />
        </mxCell>
        <mxCell id="8Pp0T-ooOlDbA1QI-Wjk-70" value="" style="group" vertex="1" connectable="0" parent="8Pp0T-ooOlDbA1QI-Wjk-68">
          <mxGeometry x="14" y="6.5" width="2" height="12" as="geometry" />
        </mxCell>
        <mxCell id="8Pp0T-ooOlDbA1QI-Wjk-71" value="" style="ellipse;whiteSpace=wrap;html=1;rotation=0;fillColor=#000000;" vertex="1" parent="8Pp0T-ooOlDbA1QI-Wjk-70">
          <mxGeometry width="2" height="2" as="geometry" />
        </mxCell>
        <mxCell id="8Pp0T-ooOlDbA1QI-Wjk-72" value="" style="ellipse;whiteSpace=wrap;html=1;rotation=0;fillColor=#000000;" vertex="1" parent="8Pp0T-ooOlDbA1QI-Wjk-70">
          <mxGeometry y="5" width="2" height="2" as="geometry" />
        </mxCell>
        <mxCell id="8Pp0T-ooOlDbA1QI-Wjk-73" value="" style="ellipse;whiteSpace=wrap;html=1;rotation=0;fillColor=#000000;" vertex="1" parent="8Pp0T-ooOlDbA1QI-Wjk-70">
          <mxGeometry y="10" width="2" height="2" as="geometry" />
        </mxCell>
        <mxCell id="8Pp0T-ooOlDbA1QI-Wjk-74" value="" style="group" vertex="1" connectable="0" parent="1">
          <mxGeometry x="-250" y="407.5" width="30" height="25" as="geometry" />
        </mxCell>
        <mxCell id="8Pp0T-ooOlDbA1QI-Wjk-75" value="" style="rounded=0;whiteSpace=wrap;html=1;" vertex="1" parent="8Pp0T-ooOlDbA1QI-Wjk-74">
          <mxGeometry width="30" height="25" as="geometry" />
        </mxCell>
        <mxCell id="8Pp0T-ooOlDbA1QI-Wjk-76" value="" style="group" vertex="1" connectable="0" parent="8Pp0T-ooOlDbA1QI-Wjk-74">
          <mxGeometry x="14" y="6.5" width="2" height="12" as="geometry" />
        </mxCell>
        <mxCell id="8Pp0T-ooOlDbA1QI-Wjk-77" value="" style="ellipse;whiteSpace=wrap;html=1;rotation=0;fillColor=#000000;" vertex="1" parent="8Pp0T-ooOlDbA1QI-Wjk-76">
          <mxGeometry width="2" height="2" as="geometry" />
        </mxCell>
        <mxCell id="8Pp0T-ooOlDbA1QI-Wjk-78" value="" style="ellipse;whiteSpace=wrap;html=1;rotation=0;fillColor=#000000;" vertex="1" parent="8Pp0T-ooOlDbA1QI-Wjk-76">
          <mxGeometry y="5" width="2" height="2" as="geometry" />
        </mxCell>
        <mxCell id="8Pp0T-ooOlDbA1QI-Wjk-79" value="" style="ellipse;whiteSpace=wrap;html=1;rotation=0;fillColor=#000000;" vertex="1" parent="8Pp0T-ooOlDbA1QI-Wjk-76">
          <mxGeometry y="10" width="2" height="2" as="geometry" />
        </mxCell>
        <mxCell id="8Pp0T-ooOlDbA1QI-Wjk-80" value="" style="group" vertex="1" connectable="0" parent="1">
          <mxGeometry x="-250" y="450" width="30" height="25" as="geometry" />
        </mxCell>
        <mxCell id="8Pp0T-ooOlDbA1QI-Wjk-81" value="" style="rounded=0;whiteSpace=wrap;html=1;" vertex="1" parent="8Pp0T-ooOlDbA1QI-Wjk-80">
          <mxGeometry width="30" height="25" as="geometry" />
        </mxCell>
        <mxCell id="8Pp0T-ooOlDbA1QI-Wjk-82" value="" style="group" vertex="1" connectable="0" parent="8Pp0T-ooOlDbA1QI-Wjk-80">
          <mxGeometry x="14" y="6.5" width="2" height="12" as="geometry" />
        </mxCell>
        <mxCell id="8Pp0T-ooOlDbA1QI-Wjk-83" value="" style="ellipse;whiteSpace=wrap;html=1;rotation=0;fillColor=#000000;" vertex="1" parent="8Pp0T-ooOlDbA1QI-Wjk-82">
          <mxGeometry width="2" height="2" as="geometry" />
        </mxCell>
        <mxCell id="8Pp0T-ooOlDbA1QI-Wjk-84" value="" style="ellipse;whiteSpace=wrap;html=1;rotation=0;fillColor=#000000;" vertex="1" parent="8Pp0T-ooOlDbA1QI-Wjk-82">
          <mxGeometry y="5" width="2" height="2" as="geometry" />
        </mxCell>
        <mxCell id="8Pp0T-ooOlDbA1QI-Wjk-85" value="" style="ellipse;whiteSpace=wrap;html=1;rotation=0;fillColor=#000000;" vertex="1" parent="8Pp0T-ooOlDbA1QI-Wjk-82">
          <mxGeometry y="10" width="2" height="2" as="geometry" />
        </mxCell>
        <mxCell id="8Pp0T-ooOlDbA1QI-Wjk-86" value="" style="group" vertex="1" connectable="0" parent="1">
          <mxGeometry x="-250" y="490" width="30" height="25" as="geometry" />
        </mxCell>
        <mxCell id="8Pp0T-ooOlDbA1QI-Wjk-87" value="" style="rounded=0;whiteSpace=wrap;html=1;" vertex="1" parent="8Pp0T-ooOlDbA1QI-Wjk-86">
          <mxGeometry width="30" height="25" as="geometry" />
        </mxCell>
        <mxCell id="8Pp0T-ooOlDbA1QI-Wjk-88" value="" style="group" vertex="1" connectable="0" parent="8Pp0T-ooOlDbA1QI-Wjk-86">
          <mxGeometry x="14" y="6.5" width="2" height="12" as="geometry" />
        </mxCell>
        <mxCell id="8Pp0T-ooOlDbA1QI-Wjk-89" value="" style="ellipse;whiteSpace=wrap;html=1;rotation=0;fillColor=#000000;" vertex="1" parent="8Pp0T-ooOlDbA1QI-Wjk-88">
          <mxGeometry width="2" height="2" as="geometry" />
        </mxCell>
        <mxCell id="8Pp0T-ooOlDbA1QI-Wjk-90" value="" style="ellipse;whiteSpace=wrap;html=1;rotation=0;fillColor=#000000;" vertex="1" parent="8Pp0T-ooOlDbA1QI-Wjk-88">
          <mxGeometry y="5" width="2" height="2" as="geometry" />
        </mxCell>
        <mxCell id="8Pp0T-ooOlDbA1QI-Wjk-91" value="" style="ellipse;whiteSpace=wrap;html=1;rotation=0;fillColor=#000000;" vertex="1" parent="8Pp0T-ooOlDbA1QI-Wjk-88">
          <mxGeometry y="10" width="2" height="2" as="geometry" />
        </mxCell>
        <mxCell id="8Pp0T-ooOlDbA1QI-Wjk-92" value="" style="group" vertex="1" connectable="0" parent="1">
          <mxGeometry x="-250" y="530" width="30" height="25" as="geometry" />
        </mxCell>
        <mxCell id="8Pp0T-ooOlDbA1QI-Wjk-93" value="" style="rounded=0;whiteSpace=wrap;html=1;" vertex="1" parent="8Pp0T-ooOlDbA1QI-Wjk-92">
          <mxGeometry width="30" height="25" as="geometry" />
        </mxCell>
        <mxCell id="8Pp0T-ooOlDbA1QI-Wjk-94" value="" style="group" vertex="1" connectable="0" parent="8Pp0T-ooOlDbA1QI-Wjk-92">
          <mxGeometry x="14" y="6.5" width="2" height="12" as="geometry" />
        </mxCell>
        <mxCell id="8Pp0T-ooOlDbA1QI-Wjk-95" value="" style="ellipse;whiteSpace=wrap;html=1;rotation=0;fillColor=#000000;" vertex="1" parent="8Pp0T-ooOlDbA1QI-Wjk-94">
          <mxGeometry width="2" height="2" as="geometry" />
        </mxCell>
        <mxCell id="8Pp0T-ooOlDbA1QI-Wjk-96" value="" style="ellipse;whiteSpace=wrap;html=1;rotation=0;fillColor=#000000;" vertex="1" parent="8Pp0T-ooOlDbA1QI-Wjk-94">
          <mxGeometry y="5" width="2" height="2" as="geometry" />
        </mxCell>
        <mxCell id="8Pp0T-ooOlDbA1QI-Wjk-97" value="" style="ellipse;whiteSpace=wrap;html=1;rotation=0;fillColor=#000000;" vertex="1" parent="8Pp0T-ooOlDbA1QI-Wjk-94">
          <mxGeometry y="10" width="2" height="2" as="geometry" />
        </mxCell>
        <mxCell id="8Pp0T-ooOlDbA1QI-Wjk-98" value="" style="group" vertex="1" connectable="0" parent="1">
          <mxGeometry x="-250" y="580" width="30" height="25" as="geometry" />
        </mxCell>
        <mxCell id="8Pp0T-ooOlDbA1QI-Wjk-99" value="" style="rounded=0;whiteSpace=wrap;html=1;" vertex="1" parent="8Pp0T-ooOlDbA1QI-Wjk-98">
          <mxGeometry width="30" height="25" as="geometry" />
        </mxCell>
        <mxCell id="8Pp0T-ooOlDbA1QI-Wjk-100" value="" style="group" vertex="1" connectable="0" parent="8Pp0T-ooOlDbA1QI-Wjk-98">
          <mxGeometry x="14" y="6.5" width="2" height="12" as="geometry" />
        </mxCell>
        <mxCell id="8Pp0T-ooOlDbA1QI-Wjk-101" value="" style="ellipse;whiteSpace=wrap;html=1;rotation=0;fillColor=#000000;" vertex="1" parent="8Pp0T-ooOlDbA1QI-Wjk-100">
          <mxGeometry width="2" height="2" as="geometry" />
        </mxCell>
        <mxCell id="8Pp0T-ooOlDbA1QI-Wjk-102" value="" style="ellipse;whiteSpace=wrap;html=1;rotation=0;fillColor=#000000;" vertex="1" parent="8Pp0T-ooOlDbA1QI-Wjk-100">
          <mxGeometry y="5" width="2" height="2" as="geometry" />
        </mxCell>
        <mxCell id="8Pp0T-ooOlDbA1QI-Wjk-103" value="" style="ellipse;whiteSpace=wrap;html=1;rotation=0;fillColor=#000000;" vertex="1" parent="8Pp0T-ooOlDbA1QI-Wjk-100">
          <mxGeometry y="10" width="2" height="2" as="geometry" />
        </mxCell>
        <mxCell id="8Pp0T-ooOlDbA1QI-Wjk-104" value="" style="group" vertex="1" connectable="0" parent="1">
          <mxGeometry x="-250" y="620" width="30" height="25" as="geometry" />
        </mxCell>
        <mxCell id="8Pp0T-ooOlDbA1QI-Wjk-105" value="" style="rounded=0;whiteSpace=wrap;html=1;" vertex="1" parent="8Pp0T-ooOlDbA1QI-Wjk-104">
          <mxGeometry width="30" height="25" as="geometry" />
        </mxCell>
        <mxCell id="8Pp0T-ooOlDbA1QI-Wjk-106" value="" style="group" vertex="1" connectable="0" parent="8Pp0T-ooOlDbA1QI-Wjk-104">
          <mxGeometry x="14" y="6.5" width="2" height="12" as="geometry" />
        </mxCell>
        <mxCell id="8Pp0T-ooOlDbA1QI-Wjk-107" value="" style="ellipse;whiteSpace=wrap;html=1;rotation=0;fillColor=#000000;" vertex="1" parent="8Pp0T-ooOlDbA1QI-Wjk-106">
          <mxGeometry width="2" height="2" as="geometry" />
        </mxCell>
        <mxCell id="8Pp0T-ooOlDbA1QI-Wjk-108" value="" style="ellipse;whiteSpace=wrap;html=1;rotation=0;fillColor=#000000;" vertex="1" parent="8Pp0T-ooOlDbA1QI-Wjk-106">
          <mxGeometry y="5" width="2" height="2" as="geometry" />
        </mxCell>
        <mxCell id="8Pp0T-ooOlDbA1QI-Wjk-109" value="" style="ellipse;whiteSpace=wrap;html=1;rotation=0;fillColor=#000000;" vertex="1" parent="8Pp0T-ooOlDbA1QI-Wjk-106">
          <mxGeometry y="10" width="2" height="2" as="geometry" />
        </mxCell>
        <mxCell id="8Pp0T-ooOlDbA1QI-Wjk-110" value="" style="group" vertex="1" connectable="0" parent="1">
          <mxGeometry x="-250" y="660" width="30" height="25" as="geometry" />
        </mxCell>
        <mxCell id="8Pp0T-ooOlDbA1QI-Wjk-111" value="" style="rounded=0;whiteSpace=wrap;html=1;" vertex="1" parent="8Pp0T-ooOlDbA1QI-Wjk-110">
          <mxGeometry width="30" height="25" as="geometry" />
        </mxCell>
        <mxCell id="8Pp0T-ooOlDbA1QI-Wjk-112" value="" style="group" vertex="1" connectable="0" parent="8Pp0T-ooOlDbA1QI-Wjk-110">
          <mxGeometry x="14" y="6.5" width="2" height="12" as="geometry" />
        </mxCell>
        <mxCell id="8Pp0T-ooOlDbA1QI-Wjk-113" value="" style="ellipse;whiteSpace=wrap;html=1;rotation=0;fillColor=#000000;" vertex="1" parent="8Pp0T-ooOlDbA1QI-Wjk-112">
          <mxGeometry width="2" height="2" as="geometry" />
        </mxCell>
        <mxCell id="8Pp0T-ooOlDbA1QI-Wjk-114" value="" style="ellipse;whiteSpace=wrap;html=1;rotation=0;fillColor=#000000;" vertex="1" parent="8Pp0T-ooOlDbA1QI-Wjk-112">
          <mxGeometry y="5" width="2" height="2" as="geometry" />
        </mxCell>
        <mxCell id="8Pp0T-ooOlDbA1QI-Wjk-115" value="" style="ellipse;whiteSpace=wrap;html=1;rotation=0;fillColor=#000000;" vertex="1" parent="8Pp0T-ooOlDbA1QI-Wjk-112">
          <mxGeometry y="10" width="2" height="2" as="geometry" />
        </mxCell>
        <mxCell id="8Pp0T-ooOlDbA1QI-Wjk-116" value="" style="group" vertex="1" connectable="0" parent="1">
          <mxGeometry x="-250" y="700" width="30" height="25" as="geometry" />
        </mxCell>
        <mxCell id="8Pp0T-ooOlDbA1QI-Wjk-117" value="" style="rounded=0;whiteSpace=wrap;html=1;" vertex="1" parent="8Pp0T-ooOlDbA1QI-Wjk-116">
          <mxGeometry width="30" height="25" as="geometry" />
        </mxCell>
        <mxCell id="8Pp0T-ooOlDbA1QI-Wjk-118" value="" style="group" vertex="1" connectable="0" parent="8Pp0T-ooOlDbA1QI-Wjk-116">
          <mxGeometry x="14" y="6.5" width="2" height="12" as="geometry" />
        </mxCell>
        <mxCell id="8Pp0T-ooOlDbA1QI-Wjk-119" value="" style="ellipse;whiteSpace=wrap;html=1;rotation=0;fillColor=#000000;" vertex="1" parent="8Pp0T-ooOlDbA1QI-Wjk-118">
          <mxGeometry width="2" height="2" as="geometry" />
        </mxCell>
        <mxCell id="8Pp0T-ooOlDbA1QI-Wjk-120" value="" style="ellipse;whiteSpace=wrap;html=1;rotation=0;fillColor=#000000;" vertex="1" parent="8Pp0T-ooOlDbA1QI-Wjk-118">
          <mxGeometry y="5" width="2" height="2" as="geometry" />
        </mxCell>
        <mxCell id="8Pp0T-ooOlDbA1QI-Wjk-121" value="" style="ellipse;whiteSpace=wrap;html=1;rotation=0;fillColor=#000000;" vertex="1" parent="8Pp0T-ooOlDbA1QI-Wjk-118">
          <mxGeometry y="10" width="2" height="2" as="geometry" />
        </mxCell>
        <mxCell id="8Pp0T-ooOlDbA1QI-Wjk-122" value="" style="shape=callout;whiteSpace=wrap;html=1;perimeter=calloutPerimeter;flipV=0;flipH=1;container=0;direction=north;" vertex="1" parent="1">
          <mxGeometry x="-220" y="580" width="80" height="90" as="geometry" />
        </mxCell>
        <mxCell id="8Pp0T-ooOlDbA1QI-Wjk-123" value="" style="html=1;verticalLabelPosition=bottom;align=center;labelBackgroundColor=#ffffff;verticalAlign=top;strokeWidth=2;strokeColor=#b85450;shadow=0;dashed=0;shape=mxgraph.ios7.icons.trashcan;fillColor=#f8cecc;" vertex="1" parent="1">
          <mxGeometry x="-177.33999999999997" y="640" width="20" height="20" as="geometry" />
        </mxCell>
        <mxCell id="8Pp0T-ooOlDbA1QI-Wjk-124" value="" style="sketch=0;outlineConnect=0;fontColor=#232F3E;gradientColor=none;fillColor=#7AA116;strokeColor=none;dashed=0;verticalLabelPosition=bottom;verticalAlign=top;align=center;html=1;fontSize=12;fontStyle=0;aspect=fixed;pointerEvents=1;shape=mxgraph.aws4.iot_over_the_air_update;" vertex="1" parent="1">
          <mxGeometry x="-184.66999999999996" y="591" width="34.67" height="28" as="geometry" />
        </mxCell>
        <mxCell id="8Pp0T-ooOlDbA1QI-Wjk-126" value="" style="rounded=1;whiteSpace=wrap;html=1;" vertex="1" parent="1">
          <mxGeometry x="-187.34" y="313" width="307.34" height="272" as="geometry" />
        </mxCell>
        <mxCell id="8Pp0T-ooOlDbA1QI-Wjk-127" value="" style="html=1;verticalLabelPosition=bottom;align=center;labelBackgroundColor=#ffffff;verticalAlign=top;strokeWidth=2;strokeColor=#b85450;shadow=0;dashed=0;shape=mxgraph.ios7.icons.trashcan;fillColor=#f8cecc;" vertex="1" parent="1">
          <mxGeometry x="-160" y="345" width="70" height="65" as="geometry" />
        </mxCell>
        <mxCell id="8Pp0T-ooOlDbA1QI-Wjk-128" value="Deseja Realmente Apagar!?" style="text;html=1;align=center;verticalAlign=middle;whiteSpace=wrap;rounded=0;fontSize=21;" vertex="1" parent="1">
          <mxGeometry x="-85" y="346.25" width="195" height="107.5" as="geometry" />
        </mxCell>
        <mxCell id="8Pp0T-ooOlDbA1QI-Wjk-129" value="" style="rounded=0;whiteSpace=wrap;html=1;" vertex="1" parent="1">
          <mxGeometry x="-160" y="480" width="100" height="40" as="geometry" />
        </mxCell>
        <mxCell id="8Pp0T-ooOlDbA1QI-Wjk-130" value="" style="rounded=0;whiteSpace=wrap;html=1;fillColor=#f8cecc;strokeColor=#b85450;" vertex="1" parent="1">
          <mxGeometry x="-10" y="480" width="100" height="40" as="geometry" />
        </mxCell>
        <mxCell id="8Pp0T-ooOlDbA1QI-Wjk-131" value="SIM" style="text;html=1;align=center;verticalAlign=middle;whiteSpace=wrap;rounded=0;" vertex="1" parent="1">
          <mxGeometry x="-145" y="485" width="60" height="30" as="geometry" />
        </mxCell>
        <mxCell id="8Pp0T-ooOlDbA1QI-Wjk-132" value="NAO" style="text;html=1;align=center;verticalAlign=middle;whiteSpace=wrap;rounded=0;" vertex="1" parent="1">
          <mxGeometry x="10" y="485" width="60" height="30" as="geometry" />
        </mxCell>
      </root>
    </mxGraphModel>
  </diagram>
  <diagram id="UDmncitRHWpG-gCNA55M" name="Página-3">
    <mxGraphModel dx="1434" dy="772" grid="1" gridSize="10" guides="1" tooltips="1" connect="1" arrows="1" fold="1" page="1" pageScale="1" pageWidth="827" pageHeight="1169" math="0" shadow="0">
      <root>
        <mxCell id="0" />
        <mxCell id="1" parent="0" />
        <mxCell id="LohL86LI3Cboh7MW8Gvt-3" value="" style="rounded=1;whiteSpace=wrap;html=1;fillColor=#f8cecc;strokeColor=#b85450;gradientColor=#FFFFFF;" parent="1" vertex="1">
          <mxGeometry x="200" width="450" height="800" as="geometry" />
        </mxCell>
        <mxCell id="lR4u_n415_XNI0jZ3QtK-1" value="CADASTRAR FORNECEDOR&amp;nbsp;" style="text;strokeColor=none;fillColor=none;html=1;fontSize=24;fontStyle=1;verticalAlign=middle;align=center;" vertex="1" parent="1">
          <mxGeometry x="375" y="40" width="100" height="40" as="geometry" />
        </mxCell>
      </root>
    </mxGraphModel>
  </diagram>
</mxfile>
